<svg width="288" height="288" viewBox="0 0 288 288" fill="none" xmlns="http://www.w3.org/2000/svg">
<g style="mix-blend-mode:difference">
<path d="M78.4685 117.261C80.1787 116.145 81.3278 115.61 83.4311 116.055C85.909 116.579 86.5523 118.555 86.6016 120.866C86.7218 128.167 86.2319 135.459 86.5233 142.762C86.5852 144.323 86.7544 145.941 86.6982 147.499C91.7089 142.013 97.905 137.603 102.838 132.015C103.595 131.157 104.611 130.311 105.368 129.433C106.943 127.386 108.709 125.38 110.195 123.281C111.079 122.03 111.955 120.773 112.823 119.511C114.154 117.584 115.653 115.054 118.243 114.826C119.963 114.675 120.541 117.374 120.521 118.677C120.38 122.406 118.246 125.921 116.546 129.145C116.336 129.543 115.938 129.975 115.752 130.358C114.878 132.16 113.689 133.531 112.481 135.096C110.449 137.733 108.288 140.266 106.006 142.688C102.318 146.574 98.4571 150.297 94.3293 153.707C93.6886 154.236 92.9902 154.68 92.3599 155.246C92.9537 155.641 93.4664 156.155 94.0093 156.613C96.4103 158.64 98.6822 160.495 101.487 161.961C102.717 162.605 104.597 164.182 106.06 164.288C107.997 165.927 113.225 167.113 115.881 168.259C118.892 169.559 125.112 171.034 125.984 174.934C126.037 178.15 122.509 179.719 119.806 179.785C118.041 179.828 115.924 179.904 114.356 179.527C107.996 177.995 101.906 175.118 96.6643 171.208C94.7214 169.759 92.6975 168.51 91.111 166.623C91.7274 168.852 92.6621 170.94 93.546 173.069C93.782 173.637 93.9514 174.232 94.1931 174.798C95.0263 176.75 96.3523 179.481 96.6442 181.556C96.7925 182.61 96.639 183.917 96.1068 184.851C95.8224 185.351 95.3838 185.737 94.8187 185.877C93.6726 186.16 92.2838 185.586 91.3275 184.986C87.4953 182.581 82.859 173.438 81.0814 169.223C80.2221 167.186 79.533 165.043 78.8725 162.935C78.5639 161.949 78.2084 161.011 77.9801 159.999C77.8145 159.265 77.7038 158.515 77.5243 157.785C77.3509 157.078 77.1037 156.387 76.9451 155.678C76.7499 154.805 76.721 153.746 76.3495 152.931L76.0431 151.238C76.1314 150.521 75.7467 149.327 75.6895 148.566C75.5683 146.955 75.3119 145.381 75.0727 143.787C74.9393 142.898 75.0514 141.844 74.9667 140.943C74.6435 134.997 74.9997 128.715 76.433 122.922C76.7798 121.521 77.0018 120.407 77.583 119.017C77.8467 118.387 78.1678 117.866 78.4685 117.261Z" fill="#FF7500"/>
<path d="M173.798 114.889C176.442 114.076 178.96 115.507 179.239 118.456C179.262 118.697 179.152 119.543 179.077 119.767C176.716 126.784 173.004 133.283 169.394 139.706C168.73 140.887 168.177 142.127 167.478 143.288C166.586 144.604 165.809 145.938 164.96 147.278C164.294 148.33 163.409 149.384 162.855 150.489C163.413 151.039 164.563 152.723 165.061 153.324C171.648 161.283 176.814 162.333 183.999 154.251C187.468 150.728 190.587 146.783 193.5 142.788C194.111 141.95 195.325 140.794 195.665 139.9C195.676 139.277 194.651 138.213 194.25 137.672C193.078 136.088 192.066 134.533 190.985 132.883C188.56 129.208 185.98 125.135 186.417 120.528C186.539 119.243 187.161 118.308 188.312 117.712C189.085 117.311 189.999 116.973 190.884 117.087C191.747 117.199 192.395 117.825 192.977 118.421C194.497 120.016 195.567 121.969 196.864 123.738C198.549 125.979 200.341 128.167 201.992 130.437C203.812 126.912 205.259 123.309 207.26 119.78C209.307 116.17 211.258 110.728 216.053 110.034C218.454 109.687 219.653 111.583 219.79 113.673C220.277 119.044 217.632 124.002 215.357 128.674C213.73 131.962 211.684 135.915 209.379 138.776C210.07 139.803 211.129 140.731 211.997 141.622C213.533 143.201 215.163 144.752 216.817 146.203C217.746 147.018 218.886 147.796 219.822 148.601C221.441 149.993 223.159 151.439 224.608 153.003C225.658 154.135 226.911 155.568 226.848 157.191C226.795 158.599 226.061 159.786 225.056 160.723C224.112 161.613 222.846 162.08 221.551 162.016C217.365 161.846 211.952 157.665 209.176 154.784C207.261 152.797 205.074 150.588 203.202 148.565C203.107 148.485 202.98 148.406 202.874 148.335C202.496 148.357 201.834 149.732 201.379 150.212C198.532 153.212 195.881 156.779 192.967 159.702C188.282 164.35 183.76 168.315 177.072 169.505C169.779 170.803 164.462 167.573 159.849 162.161C158.912 161.062 157.863 159.348 156.882 158.386C156.498 158.888 155.415 160.006 154.911 160.569C151.403 164.492 146.991 169.041 142.125 171.153C138.885 172.558 134.442 173.083 131.155 171.6C128.694 170.489 126.746 168.298 125.655 165.828C124.771 163.827 124.165 161.403 123.966 159.236C123.758 156.966 123.834 154.29 123.952 152.004C124.296 145.312 125.089 138.81 127.628 132.557C128.061 131.642 128.366 130.603 129.408 130.224C133.467 128.752 132.897 133.134 132.798 135.744C132.737 137.32 132.667 138.896 132.587 140.471C132.455 143.194 132.262 145.991 132.334 148.715C132.381 150.486 132.591 152.263 132.778 154.025C132.941 155.561 133.037 157.305 133.552 158.764C133.972 159.954 134.477 161.624 135.705 162.193C136.501 162.562 137.465 162.38 138.257 162.076C139.753 161.5 140.961 160.083 142.065 158.966C143.154 157.865 144.318 156.774 145.335 155.606C146.849 153.864 148.252 152.045 149.719 150.266C149.987 149.941 151.306 148.635 151.359 148.329C151.419 147.98 149.404 142.319 149.162 141.491C148.477 139.145 146.114 128.897 147.03 126.901C147.345 126.214 148.334 125.599 149.029 125.354C149.858 125.069 150.766 125.121 151.556 125.501C153.114 126.26 153.157 128.171 153.428 129.685C153.622 130.715 153.833 131.742 154.061 132.765C154.224 133.465 156.382 139.786 156.737 139.959C156.912 139.839 157.038 139.442 157.121 139.218C157.491 138.222 158.065 137.416 158.578 136.511C159.039 135.523 159.79 134.525 160.241 133.545C160.726 132.49 161.244 131.703 161.793 130.731C162.747 129.04 163.596 127.321 164.656 125.685C165.177 124.881 165.569 123.914 166.092 123.101C167.253 121.261 168.488 119.588 169.939 117.966C171.352 116.387 171.831 115.724 173.798 114.889Z" fill="#FF7500"/>
<path d="M132.495 111.535C133.922 111.236 135.276 111.256 136.63 111.879C138.032 112.519 139.123 113.691 139.664 115.137C141.189 119.337 138.128 124.09 134.523 126.045C133.896 126.385 133.188 126.62 132.518 126.863C129.776 127.67 126.094 126.476 125.35 123.528C125.028 122.255 124.878 120.897 125.341 119.628C125.519 119.138 125.862 118.601 126.022 118.095C126.463 114.402 129.176 112.559 132.495 111.535Z" fill="#FF7500"/>
<path d="M241.3 86.6339L236.204 78.7939L237.699 77.8216L241.377 83.4785L243.668 81.9888L240.524 77.152L242.032 76.1719L245.176 81.0086L248.505 78.8446L249.924 81.0277L241.3 86.6339ZM239.215 65.8436L239.265 65.8585C239.953 66.6894 240.478 67.5253 240.829 68.3552C241.18 69.1851 241.36 69.9887 241.38 70.7568C241.4 71.525 241.262 72.2374 240.976 72.885C240.691 73.5325 240.26 74.0949 239.684 74.5722L239.595 74.6456C239.008 75.1321 238.355 75.4489 237.636 75.596C236.917 75.7431 236.183 75.7355 235.433 75.5528C234.684 75.3702 233.939 75.0346 233.189 74.5351C232.439 74.0357 231.734 73.3871 231.073 72.5895C230.403 71.7808 229.897 70.967 229.534 70.1463C229.172 69.3256 228.97 68.5403 228.93 67.7703C228.889 67.0002 229.008 66.2859 229.284 65.6272C229.56 64.9686 229.993 64.3859 230.58 63.8995L230.669 63.8261C231.256 63.3396 231.9 63.0118 232.609 62.8536C233.319 62.6953 234.054 62.703 234.805 62.8654C235.556 63.0278 236.312 63.3542 237.062 63.8536C237.812 64.3531 238.527 65.0128 239.215 65.8436ZM237.842 66.9817L237.851 66.9928C237.428 66.4832 236.986 66.084 236.524 65.7751C236.063 65.4662 235.601 65.2696 235.13 65.1743C234.659 65.079 234.198 65.0869 233.737 65.2072C233.276 65.3274 232.847 65.5527 232.448 65.8831L232.359 65.9566C231.971 66.2778 231.681 66.649 231.488 67.0703C231.296 67.4915 231.202 67.9426 231.208 68.4233C231.214 68.9041 231.321 69.3944 231.528 69.9144C231.735 70.4344 232.054 70.9548 232.485 71.4755C232.916 71.9961 233.368 72.4063 233.83 72.7153C234.291 73.0242 234.753 73.2208 235.215 73.305C235.677 73.3892 236.129 73.3702 236.569 73.2481C237.01 73.126 237.44 72.9006 237.838 72.5702L237.927 72.4968C238.326 72.1664 238.627 71.786 238.831 71.3555C239.035 70.9251 239.128 70.4741 239.122 69.9933C239.116 69.5125 239 69.0112 238.782 68.5003C238.564 67.9895 238.255 67.4802 237.842 66.9817ZM227.941 53.7739L227.993 53.7821C228.784 54.5154 229.414 55.2753 229.871 56.0519C230.328 56.8285 230.612 57.6016 230.732 58.3605C230.853 59.1194 230.809 59.8438 230.611 60.5232C230.413 61.2027 230.06 61.8167 229.551 62.3655L229.473 62.4499C228.955 63.0092 228.349 63.4089 227.656 63.6491C226.963 63.8893 226.233 63.9782 225.466 63.8954C224.7 63.8126 223.917 63.5778 223.108 63.181C222.299 62.7843 221.514 62.2339 220.755 61.5299C219.984 60.8161 219.376 60.0758 218.909 59.3098C218.442 58.5437 218.139 57.7918 217.998 57.0336C217.857 56.2755 217.88 55.5518 218.068 54.8626C218.255 54.1734 218.608 53.539 219.126 52.9798L219.204 52.8953C219.722 52.3361 220.318 51.9265 221 51.6766C221.683 51.4266 222.413 51.3377 223.178 51.4002C223.944 51.4626 224.737 51.6869 225.546 52.0836C226.355 52.4804 227.15 53.0405 227.941 53.7739ZM226.729 55.0824L226.74 55.0921C226.254 54.6424 225.763 54.3048 225.265 54.0591C224.767 53.8134 224.283 53.6791 223.804 53.6465C223.324 53.6139 222.868 53.6821 222.427 53.8618C221.986 54.0415 221.59 54.3213 221.238 54.7012L221.159 54.7856C220.817 55.1549 220.578 55.561 220.442 56.0039C220.307 56.4469 220.273 56.9062 220.342 57.3821C220.411 57.8579 220.582 58.3298 220.855 58.8182C221.128 59.3067 221.513 59.7806 222.009 60.2402C222.505 60.6998 223.006 61.0471 223.504 61.2928C224.002 61.5385 224.486 61.6728 224.955 61.6957C225.424 61.7185 225.869 61.6405 226.29 61.4616C226.711 61.2826 227.107 61.0029 227.459 60.623L227.537 60.5386C227.889 60.1587 228.138 59.742 228.284 59.2885C228.429 58.8351 228.463 58.3757 228.394 57.8999C228.325 57.424 228.144 56.9423 227.861 56.4644C227.578 55.9866 227.204 55.5224 226.729 55.0824ZM213.2 52.4772L216.347 54.7785L215.285 56.2301L206.89 50.0903L207.951 48.6387L211.098 50.9401L216.109 44.0888L218.21 45.6259L213.2 52.4772ZM205.338 49.0311L200.503 46.2414C199.373 45.5813 198.6 44.8799 198.191 44.1248C197.782 43.3697 197.813 42.6045 198.27 41.8218L198.299 41.7721C198.567 41.3124 198.948 41.0019 199.43 40.8333C199.911 40.6647 200.472 40.6753 201.098 40.8578C200.492 40.3543 200.089 39.8188 199.907 39.2461C199.725 38.6733 199.802 38.0852 200.157 37.4764L200.186 37.4267C200.665 36.6068 201.363 36.1815 202.273 36.1632C203.183 36.1449 204.239 36.4778 205.431 37.1742L210.525 40.1483L205.338 49.0311ZM202.831 42.7691L202.826 42.7495C202.254 42.4158 201.781 42.2561 201.406 42.2705C201.031 42.2848 200.728 42.4907 200.496 42.8883L200.466 42.938C200.256 43.2983 200.253 43.6462 200.457 43.9818C200.661 44.3174 201.039 44.6386 201.586 44.9577L203.971 46.3505L205.241 44.1764L202.831 42.7691ZM204.801 38.7386L204.796 38.7189C204.199 38.3707 203.687 38.2214 203.265 38.2585C202.844 38.2956 202.521 38.5067 202.296 38.8919L202.267 38.9416C201.81 39.7242 202.211 40.4917 203.466 41.2244L206.063 42.7405L207.484 40.3055L204.801 38.7386ZM191.533 41.5176L188.441 40.15L188.366 28.8691L190.866 29.9749L190.855 32.4873L195.894 34.7163L197.773 33.0302L199.983 34.008L191.533 41.5176ZM194.535 35.9398L190.838 34.3044L190.816 39.2971L194.535 35.9398ZM182.594 37.6299L180.114 36.8345L182.707 28.7524L177.063 26.9417L177.613 25.2294L185.736 27.8355L182.594 37.6299ZM172.424 34.4304L169.88 33.8757L171.688 25.5827L165.897 24.3201L166.28 22.5631L174.615 24.3804L172.424 34.4304ZM153.671 31.3079L150.298 31.0782L146.375 20.5011L149.102 20.6868L149.951 23.0517L155.448 23.4261L156.638 21.2L159.049 21.3643L153.671 31.3079ZM154.588 25.0402L150.555 24.7655L152.239 29.4656L154.588 25.0402ZM138.092 20.6284L138.115 20.512C139.192 20.4598 140.161 20.5425 141.021 20.7457C141.881 20.9489 142.602 21.2741 143.199 21.7061C143.796 22.138 144.268 22.6625 144.601 23.2945C144.934 23.9265 145.113 24.638 145.151 25.4283L145.157 25.5433C145.194 26.3192 145.056 27.0317 144.742 27.695C144.429 28.3583 143.981 28.9273 143.4 29.4164C142.819 29.9054 142.118 30.2994 141.311 30.5978C140.505 30.8961 139.62 31.0686 138.672 31.1145C137.824 31.1556 137.044 31.1213 136.333 31.0117C135.622 30.9021 134.993 30.7021 134.447 30.4261C133.901 30.1501 133.451 29.783 133.098 29.3392C132.745 28.8954 132.518 28.3591 132.401 27.731L135.059 27.6023C135.218 28.1995 135.571 28.6577 136.133 28.9618C136.695 29.2658 137.494 29.4 138.543 29.3492C139.146 29.3199 139.689 29.2216 140.184 29.0392C140.679 28.8568 141.099 28.606 141.444 28.2868C141.789 27.9677 142.044 27.5952 142.225 27.1688C142.406 26.7423 142.484 26.2633 142.459 25.746L142.453 25.631C142.427 25.0993 142.304 24.63 142.097 24.2224C141.89 23.8147 141.599 23.4687 141.241 23.198C140.882 22.9273 140.44 22.7183 139.929 22.5846C139.419 22.4509 138.84 22.4069 138.208 22.4375C137.159 22.4883 136.334 22.7011 135.718 23.0622C135.102 23.4233 134.738 23.9451 134.613 24.6281L132.084 24.7506C132.154 24.1135 132.342 23.5426 132.649 23.0524C132.957 22.5622 133.369 22.139 133.885 21.7971C134.401 21.4552 135.007 21.181 135.718 20.9882C136.429 20.7953 137.215 20.6708 138.092 20.6284ZM127.331 32.104L123.998 32.6669L117.717 23.2957L120.413 22.8406L121.789 24.9426L127.222 24.0252L127.86 21.583L130.243 21.1806L127.331 32.104ZM126.762 25.7952L122.776 26.4683L125.509 30.6463L126.762 25.7952ZM117.869 33.7631L113 35.156C111.896 35.4819 110.898 35.6568 110.005 35.6805C109.112 35.7042 108.328 35.5906 107.65 35.3259C106.972 35.0612 106.407 34.6729 105.956 34.1612C105.505 33.6494 105.171 33.0279 104.955 32.2966L104.923 32.1862C104.707 31.455 104.649 30.752 104.746 30.0634C104.843 29.3749 105.106 28.7421 105.531 28.1514C105.957 27.5607 106.549 27.0259 107.308 26.5469C108.066 26.0678 108.995 25.6584 110.113 25.3284L114.956 23.8982L117.869 33.7631ZM110.702 26.9693L110.712 26.9514C109.291 27.3711 108.338 27.9527 107.838 28.7001C107.339 29.4476 107.24 30.3318 107.546 31.3666L107.579 31.477C107.88 32.498 108.43 33.1907 109.237 33.5372C110.044 33.8838 111.174 33.8501 112.623 33.4223L114.872 32.7581L112.965 26.3011L110.702 26.9693ZM104.503 37.7738L95.8277 41.452L95.1426 39.8361L101.434 37.1687L100.485 34.9303L95.134 37.199L94.4489 35.5831L99.7999 33.3145L98.7891 30.9304L92.2064 33.7213L91.5213 32.1054L100.488 28.3037L104.503 37.7738ZM93.8243 42.3659L90.9025 44.0668L84.3334 40.2171L84.4996 47.7943L81.6276 49.4662L76.4526 40.5768L78.6283 39.3101L82.4933 45.9493L82.2712 37.1895L83.0047 36.7624L90.525 41.2736L86.6599 34.6345L88.6492 33.4764L93.8243 42.3659ZM73.1493 48.1795L80.423 50.0634L78.142 51.8171L73.1803 50.5328L73.2494 55.579L71.2308 57.1311L71.0762 49.7552L68.428 46.311L70.4923 44.7238L73.1493 48.1795ZM66.4343 61.3496L59.915 68.0533L58.6362 66.8097L63.3401 61.9727L61.3805 60.067L57.3586 64.2027L56.0694 62.949L60.0913 58.8133L57.2448 56.0451L59.0602 54.1784L66.4343 61.3496ZM46.6168 67.9773L46.6204 67.9255C47.2789 67.0708 47.9785 66.3749 48.7104 65.8492C49.4423 65.3234 50.1864 64.9705 50.9312 64.7816C51.6761 64.5927 52.4015 64.5704 53.0961 64.706C53.7907 64.8416 54.4343 65.1377 55.0269 65.5942L55.118 65.6645C55.7221 66.1298 56.1751 66.6968 56.4772 67.3654C56.7793 68.034 56.9341 68.7525 56.9212 69.5235C56.9083 70.2945 56.7455 71.0952 56.4238 71.937C56.1021 72.7788 55.6252 73.61 54.9931 74.4305C54.3522 75.2625 53.6701 75.9356 52.9496 76.4701C52.229 77.0046 51.5078 77.3751 50.7655 77.5842C50.0233 77.7933 49.3005 77.8357 48.5972 77.7115C47.8938 77.5873 47.23 77.2938 46.626 76.8285L46.5348 76.7583C45.9308 76.2929 45.469 75.7374 45.1581 75.0802C44.8472 74.4229 44.6925 73.7045 44.6852 72.9361C44.6779 72.1677 44.8293 71.3582 45.151 70.5164C45.4727 69.6746 45.9583 68.832 46.6168 67.9773ZM48.03 69.066L48.0387 69.0546C47.6349 69.5788 47.3433 70.0988 47.1438 70.617C46.9443 71.1352 46.8544 71.629 46.8655 72.1097C46.8765 72.5904 46.9858 73.0378 47.2048 73.4607C47.4238 73.8837 47.7384 74.2532 48.1487 74.5693L48.2398 74.6395C48.6387 74.9468 49.0648 75.148 49.5182 75.2431C49.9717 75.3381 50.4322 75.3297 50.8998 75.2178C51.3674 75.1058 51.8219 74.893 52.2835 74.5767C52.7451 74.2604 53.1822 73.8345 53.5949 73.2988C54.0075 72.7632 54.3079 72.2319 54.5074 71.7137C54.7069 71.1954 54.7968 70.7017 54.7769 70.2324C54.7571 69.7631 54.639 69.3271 54.4227 68.9243C54.2063 68.5215 53.8917 68.152 53.4814 67.8359L53.3903 67.7657C52.98 67.4496 52.5425 67.2397 52.0777 67.1358C51.6129 67.032 51.1523 67.0404 50.6847 67.1523C50.2171 67.2642 49.7539 67.4884 49.3036 67.8135C48.8534 68.1386 48.4251 68.5532 48.03 69.066ZM49.4799 81.4812L46.7238 86.1023C46.366 86.7096 45.9951 87.2258 45.5914 87.6559C45.1878 88.0859 44.7783 88.4124 44.3507 88.628C43.9232 88.8436 43.4774 88.9483 43.0208 88.9298C42.5642 88.9112 42.0968 88.7694 41.6258 88.4919L41.5762 88.4627C41.2167 88.2509 40.9237 88.0115 40.7167 87.7392C40.5098 87.467 40.3619 87.1795 40.2804 86.8644C40.199 86.5492 40.1569 86.2239 40.1739 85.8832C40.1909 85.5426 40.24 85.2042 40.3285 84.8556L35.0967 85.6302L36.5791 83.1141L41.1158 82.4141L42.3646 80.2946L39.3031 78.4908L40.6176 76.2598L49.4799 81.4812ZM42.5111 83.5034L42.5162 83.5231C42.173 84.1056 42.0143 84.63 42.0403 85.0961C42.0662 85.5622 42.3183 85.9278 42.7769 86.198L42.8265 86.2272C43.3223 86.5193 43.7716 86.5503 44.1744 86.3201C44.5772 86.0898 44.9392 85.7021 45.2679 85.1443L46.6481 82.8017L43.8841 81.1731L42.5111 83.5034ZM41.0681 96.6101L40.1047 99.0292L35.7609 97.2994L38.1034 104.055L37.0283 106.754L34.5998 99.6707L27.3922 103.149L28.5632 100.209L35.0927 97.0333L30.5484 95.2236L31.5118 92.8045L41.0681 96.6101ZM36.3261 108.685L35.5539 111.202L25.7202 108.185L26.4923 105.668L36.3261 108.685ZM34.7306 114.084L33.6211 119.025C33.3786 120.15 33.0538 121.11 32.6469 121.906C32.2399 122.701 31.7649 123.334 31.2077 123.803C30.6504 124.271 30.0391 124.581 29.3738 124.732C28.7084 124.883 28.0031 124.878 27.2578 124.717L27.1452 124.693C26.3999 124.532 25.7552 124.246 25.1971 123.832C24.6389 123.417 24.2096 122.883 23.8949 122.226C23.5802 121.57 23.3943 120.794 23.3372 119.899C23.28 119.003 23.3657 117.992 23.6113 116.852L24.6755 111.916L34.7306 114.084ZM25.3341 117.121L25.3231 117.104C25.0108 118.552 25.0647 119.668 25.4816 120.464C25.8986 121.26 26.6274 121.771 27.6822 121.998L27.7947 122.022C28.8353 122.247 29.7067 122.096 30.3976 121.553C31.0886 121.011 31.6003 120.002 31.9187 118.526L32.4129 116.233L25.8314 114.815L25.3341 117.121ZM21.0448 131.375L20.9854 131.24C21.1572 129.421 21.5878 128.074 22.2759 127.214C22.9639 126.354 23.8277 125.93 24.854 125.926L24.6146 128.461C24.3814 128.482 24.1585 128.548 23.9458 128.658C23.7331 128.768 23.5437 128.938 23.3774 129.168C23.2112 129.398 23.0682 129.688 22.9471 130.052C22.8261 130.416 22.7398 130.871 22.6884 131.415C22.6059 132.288 22.6569 132.972 22.8571 133.454C23.0573 133.935 23.3794 134.197 23.8234 134.239C24.0383 134.259 24.2299 134.219 24.3826 134.132C24.5353 134.046 24.6804 133.886 24.8036 133.652C24.9269 133.418 25.0426 133.111 25.1507 132.731C25.2588 132.351 25.3607 131.884 25.4708 131.331C25.6222 130.492 25.8044 129.787 26.0044 129.199C26.2044 128.611 26.4523 128.129 26.7323 127.765C27.0123 127.401 27.3401 127.143 27.7014 126.99C28.0627 126.836 28.4862 126.789 28.9732 126.835C29.4172 126.877 29.8217 127.031 30.1738 127.281C30.5259 127.531 30.8256 127.877 31.0585 128.318C31.2914 128.759 31.4575 129.295 31.5439 129.91C31.6304 130.525 31.6371 131.219 31.5654 131.978C31.4234 133.482 31.0677 134.648 30.4825 135.489C29.8974 136.329 29.0896 136.773 28.0462 136.805L28.2788 134.341C28.7636 134.257 29.1331 134.017 29.3885 133.608C29.6439 133.199 29.801 132.607 29.874 131.833C29.9524 131.002 29.909 130.391 29.745 129.986C29.581 129.58 29.3121 129.367 28.9397 129.332C28.7679 129.316 28.6206 129.345 28.4836 129.419C28.3465 129.493 28.2171 129.639 28.0965 129.845C27.976 130.05 27.8617 130.343 27.7549 130.708C27.6481 131.074 27.5462 131.541 27.4334 132.123C27.2861 132.918 27.1182 133.625 26.9298 134.243C26.7414 134.861 26.5052 135.373 26.2354 135.781C25.9657 136.189 25.6338 136.49 25.2412 136.67C24.8485 136.85 24.3794 136.921 23.8351 136.87C23.3481 136.824 22.915 136.667 22.5356 136.4C22.1562 136.133 21.8435 135.771 21.599 135.3C21.3545 134.829 21.1767 134.263 21.08 133.604C20.9834 132.944 20.9664 132.206 21.0448 131.375ZM40.9839 190.804L45.2699 199.115L43.6844 199.933L40.5919 193.936L38.1626 195.189L40.8067 200.316L39.2084 201.14L36.5643 196.013L33.0354 197.833L31.8419 195.519L40.9839 190.804ZM40.9686 211.703L40.9207 211.683C40.3201 210.786 39.8831 209.902 39.6177 209.041C39.3524 208.179 39.2547 207.362 39.3127 206.595C39.3708 205.829 39.5806 205.134 39.9303 204.519C40.28 203.904 40.7656 203.388 41.387 202.972L41.4827 202.907C42.1161 202.483 42.7978 202.234 43.5278 202.161C44.2578 202.087 44.9882 202.169 45.7149 202.427C46.4417 202.684 47.1489 203.094 47.8445 203.667C48.5401 204.24 49.1762 204.956 49.7528 205.817C50.3374 206.689 50.7583 207.55 51.0357 208.403C51.313 209.257 51.4345 210.058 51.3964 210.828C51.3583 211.599 51.1685 212.297 50.8268 212.924C50.4851 213.552 49.9956 214.088 49.3622 214.512L49.2666 214.576C48.6332 215 47.9595 215.261 47.2375 215.347C46.5155 215.432 45.7851 215.35 45.0544 215.113C44.3236 214.875 43.6045 214.474 42.9089 213.901C42.2133 213.328 41.5692 212.599 40.9686 211.703ZM42.4506 210.71L42.4425 210.698C42.8109 211.247 43.2109 211.689 43.6387 212.044C44.0665 212.398 44.5059 212.64 44.9651 212.783C45.4243 212.925 45.8833 212.964 46.3539 212.891C46.8246 212.818 47.275 212.638 47.7053 212.349L47.8009 212.285C48.2192 212.005 48.5455 211.665 48.78 211.265C49.0145 210.866 49.1531 210.427 49.1959 209.948C49.2387 209.469 49.1816 208.97 49.0287 208.432C48.8759 207.894 48.6112 207.344 48.2349 206.782C47.8585 206.22 47.4504 205.766 47.0227 205.412C46.5949 205.058 46.1554 204.816 45.7043 204.685C45.2531 204.555 44.8022 204.528 44.3515 204.604C43.9008 204.681 43.4503 204.862 43.0201 205.15L42.9245 205.214C42.4942 205.503 42.1559 205.851 41.9095 206.258C41.663 206.666 41.5244 207.105 41.4816 207.584C41.4389 208.063 41.5039 208.573 41.6687 209.104C41.8336 209.634 42.0902 210.172 42.4506 210.71ZM50.9663 224.847L50.9161 224.834C50.2023 224.025 49.6521 223.206 49.2752 222.387C48.8983 221.569 48.6934 220.771 48.6496 220.004C48.6059 219.237 48.722 218.52 48.9873 217.864C49.2525 217.208 49.6656 216.632 50.2266 216.138L50.3129 216.061C50.8846 215.557 51.5274 215.22 52.2413 215.051C52.9552 214.881 53.69 214.866 54.4444 215.025C55.1989 215.185 55.954 215.497 56.7193 215.973C57.4845 216.449 58.2098 217.075 58.8951 217.852C59.5899 218.639 60.121 219.437 60.5087 220.246C60.8964 221.055 61.1229 221.833 61.1869 222.602C61.251 223.37 61.1552 224.088 60.8994 224.755C60.6437 225.422 60.2293 226.018 59.6576 226.522L59.5713 226.598C58.9996 227.103 58.3663 227.45 57.6619 227.631C56.9576 227.811 56.2228 227.826 55.467 227.687C54.7113 227.548 53.9454 227.245 53.1801 226.769C52.4149 226.293 51.6801 225.656 50.9663 224.847ZM52.3039 223.667L52.2944 223.656C52.7322 224.153 53.1872 224.538 53.658 224.832C54.1288 225.127 54.5965 225.309 55.0705 225.389C55.5445 225.47 56.0045 225.448 56.4614 225.313C56.9183 225.179 57.3409 224.94 57.7293 224.597L57.8156 224.521C58.1931 224.188 58.4717 223.808 58.6513 223.381C58.8309 222.954 58.9102 222.5 58.8893 222.02C58.8683 221.54 58.7459 221.053 58.5232 220.54C58.3005 220.026 57.9654 219.516 57.5181 219.009C57.0707 218.502 56.6063 218.106 56.1354 217.812C55.6646 217.517 55.197 217.335 54.7325 217.265C54.268 217.195 53.8175 217.228 53.3809 217.364C52.9443 217.5 52.5217 217.739 52.1333 218.081L52.047 218.157C51.6587 218.5 51.3693 218.89 51.179 219.326C50.9886 219.763 50.9093 220.216 50.9302 220.697C50.9511 221.177 51.0831 221.675 51.3166 222.178C51.5501 222.682 51.8756 223.182 52.3039 223.667ZM65.5074 227.627L62.6103 225.018L63.8137 223.682L71.5428 230.642L70.3395 231.979L67.4424 229.37L61.7625 235.677L59.8275 233.934L65.5074 227.627ZM72.9525 231.83L77.4908 235.08C78.5512 235.847 79.2521 236.621 79.5849 237.412C79.9176 238.204 79.8125 238.963 79.281 239.697L79.2473 239.743C78.9351 240.174 78.5253 240.446 78.0295 240.567C77.5338 240.687 76.9773 240.622 76.3717 240.379C76.9251 240.939 77.2743 241.512 77.3993 242.1C77.5244 242.687 77.3903 243.265 76.9769 243.836L76.9432 243.883C76.3864 244.652 75.6499 245.007 74.7423 244.936C73.8346 244.865 72.8172 244.43 71.6985 243.62L66.9208 240.162L72.9525 231.83ZM74.8346 238.307L74.8378 238.327C75.3739 238.715 75.8291 238.92 76.2036 238.943C76.5781 238.965 76.9003 238.79 77.1702 238.417L77.204 238.371C77.4486 238.033 77.4859 237.687 77.3159 237.333C77.1459 236.979 76.8003 236.622 76.2876 236.251L74.0502 234.631L72.5739 236.67L74.8346 238.307ZM72.479 242.125L72.4822 242.145C73.0416 242.55 73.537 242.749 73.9601 242.753C74.3832 242.758 74.7255 242.579 74.987 242.218L75.0207 242.171C75.5522 241.437 75.2279 240.634 74.0509 239.782L71.6154 238.019L69.9619 240.303L72.479 242.125ZM85.9671 240.675L88.9073 242.344L87.8588 253.576L85.4816 252.227L85.742 249.728L80.9501 247.008L78.9131 248.499L76.8111 247.306L85.9671 240.675ZM82.4244 245.926L85.9401 247.922L86.4591 242.956L82.4244 245.926ZM94.4778 245.435L96.8654 246.474L93.4781 254.257L98.9128 256.622L98.1952 258.271L90.3729 254.867L94.4778 245.435ZM104.287 249.639L106.762 250.448L104.126 258.516L109.76 260.357L109.201 262.066L101.092 259.416L104.287 249.639ZM122.649 254.647L125.981 255.224L128.789 266.15L126.096 265.684L125.497 263.244L120.068 262.303L118.654 264.395L116.273 263.982L122.649 254.647ZM121.09 260.787L125.073 261.477L123.883 256.628L121.09 260.787ZM137.043 266.854L137.009 266.968C135.931 266.912 134.975 266.733 134.14 266.445C133.305 266.157 132.62 265.761 132.069 265.272C131.518 264.782 131.101 264.213 130.832 263.551C130.564 262.889 130.458 262.163 130.498 261.373L130.504 261.258C130.545 260.482 130.753 259.787 131.132 259.159C131.51 258.53 132.012 258.009 132.639 257.58C133.267 257.152 134.003 256.829 134.836 256.613C135.668 256.397 136.565 256.314 137.514 256.363C138.361 256.407 139.133 256.519 139.83 256.699C140.527 256.879 141.132 257.14 141.648 257.47C142.164 257.799 142.575 258.209 142.882 258.686C143.189 259.163 143.362 259.719 143.415 260.356L140.757 260.218C140.659 259.608 140.353 259.117 139.824 258.758C139.295 258.4 138.514 258.186 137.465 258.132C136.862 258.101 136.312 258.145 135.801 258.277C135.29 258.409 134.847 258.616 134.473 258.899C134.098 259.182 133.806 259.527 133.584 259.934C133.361 260.34 133.236 260.809 133.209 261.326L133.203 261.441C133.176 261.973 133.252 262.452 133.417 262.878C133.582 263.305 133.837 263.678 134.167 263.983C134.497 264.288 134.916 264.54 135.41 264.724C135.905 264.908 136.476 265.01 137.108 265.043C138.157 265.097 138.999 264.968 139.648 264.67C140.298 264.372 140.711 263.889 140.904 263.222L143.433 263.353C143.3 263.98 143.055 264.529 142.7 264.986C142.345 265.443 141.894 265.823 141.346 266.112C140.798 266.4 140.167 266.613 139.441 266.733C138.714 266.854 137.92 266.9 137.043 266.854ZM148.89 256.509L152.263 256.28L157.581 266.229L154.854 266.414L153.693 264.185L148.196 264.559L147.319 266.925L144.907 267.089L148.89 256.509ZM148.83 262.843L152.863 262.569L150.558 258.14L148.83 262.843ZM158.472 255.798L163.456 254.897C164.586 254.682 165.597 254.608 166.488 254.673C167.379 254.738 168.147 254.93 168.796 255.261C169.444 255.591 169.967 256.034 170.365 256.588C170.763 257.142 171.033 257.794 171.175 258.543L171.197 258.656C171.339 259.405 171.326 260.111 171.162 260.786C170.997 261.462 170.672 262.065 170.19 262.61C169.707 263.156 169.065 263.629 168.262 264.03C167.46 264.431 166.495 264.746 165.35 264.963L160.389 265.904L158.472 255.798ZM164.927 263.272L164.915 263.288C166.371 263.012 167.377 262.529 167.949 261.835C168.52 261.141 168.706 260.271 168.505 259.211L168.484 259.097C168.285 258.052 167.808 257.308 167.039 256.882C166.27 256.457 165.142 256.378 163.658 256.659L161.354 257.096L162.609 263.711L164.927 263.272ZM172.186 253.135L181.189 250.352L181.707 252.029L175.178 254.047L175.896 256.37L181.449 254.654L181.968 256.331L176.415 258.047L177.179 260.521L184.011 258.409L184.529 260.086L175.224 262.963L172.186 253.135ZM183.269 249.647L186.347 248.249L192.496 252.739L193.093 245.183L196.118 243.809L200.373 253.173L198.081 254.215L194.903 247.221L194.244 255.959L193.471 256.31L186.442 251.066L189.62 258.06L187.525 259.012L183.269 249.647ZM204.432 245.944L197.388 243.328L199.836 241.816L204.641 243.6L205.087 238.573L207.253 237.235L206.655 244.588L208.938 248.284L206.723 249.652L204.432 245.944ZM212.436 233.531L219.595 227.515L220.743 228.881L215.578 233.222L217.336 235.314L221.752 231.603L222.909 232.979L218.493 236.691L221.048 239.731L219.054 241.406L212.436 233.531ZM232.81 228.915L232.802 228.966C232.062 229.752 231.297 230.375 230.517 230.826C229.737 231.277 228.962 231.555 228.202 231.67C227.442 231.784 226.718 231.735 226.04 231.531C225.362 231.328 224.751 230.97 224.206 230.457L224.122 230.378C223.567 229.856 223.172 229.247 222.938 228.552C222.703 227.857 222.62 227.126 222.708 226.36C222.797 225.594 223.038 224.814 223.441 224.008C223.844 223.202 224.401 222.421 225.111 221.667C225.831 220.903 226.576 220.3 227.346 219.839C228.115 219.378 228.87 219.081 229.629 218.946C230.388 218.811 231.111 218.84 231.799 219.033C232.487 219.226 233.118 219.583 233.674 220.106L233.757 220.185C234.313 220.707 234.717 221.306 234.962 221.99C235.207 222.675 235.29 223.405 235.221 224.171C235.153 224.936 234.922 225.727 234.519 226.533C234.116 227.339 233.55 228.129 232.81 228.915ZM231.511 227.692L231.501 227.703C231.955 227.221 232.296 226.732 232.546 226.236C232.796 225.74 232.934 225.257 232.97 224.778C233.007 224.299 232.942 223.843 232.766 223.4C232.589 222.958 232.313 222.559 231.936 222.204L231.852 222.125C231.485 221.78 231.081 221.538 230.639 221.398C230.197 221.259 229.738 221.222 229.262 221.287C228.786 221.353 228.312 221.52 227.822 221.789C227.331 222.058 226.854 222.439 226.391 222.931C225.927 223.424 225.576 223.923 225.326 224.419C225.077 224.915 224.939 225.397 224.912 225.866C224.886 226.335 224.96 226.781 225.136 227.203C225.311 227.625 225.588 228.024 225.965 228.379L226.049 228.458C226.426 228.813 226.841 229.065 227.293 229.214C227.745 229.363 228.204 229.4 228.681 229.335C229.157 229.269 229.64 229.092 230.12 228.813C230.6 228.534 231.068 228.163 231.511 227.692ZM231.31 215.175L234.519 210.856C234.937 210.288 235.358 209.812 235.803 209.425C236.248 209.038 236.688 208.755 237.136 208.583C237.583 208.412 238.037 208.353 238.489 208.418C238.942 208.482 239.392 208.671 239.833 208.994L239.879 209.029C240.215 209.276 240.483 209.543 240.661 209.835C240.84 210.127 240.958 210.428 241.007 210.75C241.056 211.071 241.065 211.399 241.014 211.737C240.962 212.074 240.879 212.405 240.756 212.743L246.039 212.502L244.31 214.855L239.726 215.093L238.269 217.075L241.132 219.179L239.599 221.266L231.31 215.175ZM238.448 213.868L238.445 213.848C238.845 213.303 239.056 212.797 239.077 212.331C239.099 211.865 238.885 211.475 238.456 211.16L238.409 211.126C237.946 210.785 237.502 210.709 237.078 210.897C236.654 211.086 236.254 211.435 235.871 211.957L234.261 214.148L236.846 216.047L238.448 213.868ZM241.198 200.985L242.397 198.674L246.547 200.828L244.889 193.873L246.228 191.294L247.939 198.584L255.457 195.841L253.999 198.65L247.185 201.159L251.527 203.413L250.327 205.724L241.198 200.985ZM247.122 189.437L248.143 187.01L257.625 190.997L256.604 193.424L247.122 189.437ZM249.253 184.22L250.855 179.416C251.209 178.321 251.629 177.399 252.114 176.648C252.599 175.898 253.135 175.316 253.737 174.906C254.338 174.496 254.978 174.249 255.655 174.166C256.332 174.083 257.033 174.159 257.759 174.394L257.868 174.429C258.594 174.664 259.206 175.014 259.72 175.482C260.233 175.951 260.607 176.526 260.854 177.211C261.101 177.895 261.207 178.686 261.174 179.583C261.141 180.479 260.954 181.477 260.595 182.586L259.039 187.39L249.253 184.22ZM258.908 182.145L258.917 182.163C259.373 180.754 259.432 179.639 259.097 178.804C258.763 177.97 258.089 177.389 257.063 177.056L256.953 177.021C255.94 176.693 255.058 176.755 254.316 177.225C253.574 177.696 252.963 178.647 252.498 180.084L251.775 182.315L258.181 184.39L258.908 182.145ZM264.65 168.404L264.695 168.546C264.329 170.336 263.756 171.628 262.979 172.409C262.203 173.19 261.299 173.519 260.278 173.413L260.788 170.918C261.022 170.922 261.251 170.881 261.474 170.794C261.697 170.708 261.904 170.559 262.094 170.348C262.284 170.137 262.457 169.865 262.617 169.515C262.776 169.166 262.911 168.724 263.021 168.188C263.196 167.329 263.219 166.643 263.072 166.143C262.925 165.643 262.632 165.348 262.196 165.259C261.984 165.216 261.789 165.235 261.628 165.304C261.467 165.374 261.306 165.517 261.158 165.737C261.01 165.956 260.862 166.249 260.714 166.615C260.566 166.981 260.414 167.435 260.245 167.973C260.005 168.79 259.748 169.472 259.486 170.035C259.224 170.598 258.925 171.051 258.608 171.382C258.29 171.714 257.937 171.935 257.561 172.049C257.185 172.163 256.759 172.164 256.28 172.066C255.843 171.977 255.457 171.78 255.134 171.494C254.811 171.208 254.55 170.831 254.366 170.368C254.182 169.904 254.074 169.354 254.055 168.733C254.035 168.112 254.103 167.421 254.256 166.674C254.558 165.194 255.037 164.073 255.709 163.3C256.381 162.528 257.232 162.173 258.273 162.254L257.777 164.678C257.286 164.71 256.893 164.908 256.595 165.288C256.297 165.667 256.077 166.239 255.922 167C255.754 167.818 255.732 168.43 255.851 168.851C255.971 169.272 256.215 169.513 256.582 169.588C256.751 169.622 256.9 169.609 257.044 169.55C257.189 169.491 257.333 169.359 257.475 169.168C257.617 168.977 257.762 168.698 257.908 168.346C258.053 167.994 258.204 167.541 258.379 166.974C258.611 166.2 258.854 165.515 259.108 164.921C259.361 164.327 259.651 163.843 259.963 163.466C260.275 163.089 260.638 162.826 261.047 162.689C261.457 162.553 261.931 162.532 262.467 162.642C262.946 162.74 263.36 162.942 263.708 163.248C264.057 163.555 264.329 163.948 264.521 164.443C264.714 164.937 264.83 165.519 264.855 166.185C264.88 166.851 264.818 167.587 264.65 168.404Z" fill="#FF7500"/>
<circle cx="254.171" cy="121.822" r="5.03516" fill="#FF7500"/>
<circle cx="32.6245" cy="166.418" r="5.03516" fill="#FF7500"/>
</g>
</svg>
