<svg width="46" height="51" viewBox="0 0 46 51" fill="none" xmlns="http://www.w3.org/2000/svg">
<path d="M9.63448 25.4083C9.54953 25.3556 9.4704 25.483 9.37517 25.5416C9.5026 25.6207 9.58173 25.4933 9.63448 25.4083ZM9.47176 25.9547C8.35674 27.0868 7.5154 29.3895 7.29992 30.0208C8.71538 28.3101 8.9675 27.525 9.47176 25.9547ZM7.17249 29.9417C6.86488 29.8684 6.73436 30.5524 6.49114 30.7545C6.84123 30.8542 6.92928 30.1438 7.17249 29.9417ZM6.45585 31.38C6.43975 31.3112 6.48805 31.5178 6.45585 31.38V31.38ZM5.92831 32.2296C5.80088 32.1504 5.73785 32.3467 5.64262 32.4053C5.77004 32.4844 5.83308 32.2881 5.92831 32.2296ZM9.87152 26.7327C9.2532 27.3492 8.46634 28.332 8.71228 29.0733C8.6126 29.4234 8.21285 28.6455 8.16146 29.2021C8.28888 29.2812 8.41631 29.3604 8.50127 29.4131C8.69173 29.296 8.64479 29.5611 8.50127 29.4131C8.45433 29.6783 7.97818 29.9711 8.23304 30.1294C8.12753 30.2993 7.89905 30.0986 7.73496 30.1732C8.16555 30.6172 7.36841 31.7113 7.06353 32.5814C7.32421 32.9198 7.32148 31.9764 7.60854 32.2724C7.44445 32.3471 7.60544 33.0356 7.28755 33.0736C7.4047 33.2641 6.9974 33.5409 7.18341 33.7152C7.36805 33.4179 7.4852 33.6084 7.31084 33.7944C7.50267 34.1489 7.33858 34.2236 7.06899 34.4682C7.18614 34.6586 6.96348 34.6381 7.06899 34.4682C6.94156 34.389 7.00459 34.1928 6.81413 34.3099C6.70999 34.9515 7.02342 35.205 6.30405 35.7C6.07111 35.7908 5.99198 35.9182 6.0139 36.1672C6.18381 36.2727 6.27321 36.034 6.35235 35.9066C6.6233 36.1337 6.12077 36.469 5.98307 36.5012C5.85564 36.4221 5.97725 36.321 6.0139 36.1672C5.41032 36.381 6.24511 37.3114 5.50382 37.5573C5.79088 37.8533 4.79609 38.4127 5.152 38.6925C4.92935 38.672 4.19833 38.8066 4.42236 39.2988C4.55424 39.0865 4.61728 38.8902 4.78718 38.9957C5.06842 39.1115 4.53369 39.3091 4.42236 39.2988C4.34322 39.4263 4.15722 39.2519 4.03561 39.353C4.00477 39.687 3.70881 39.974 3.47723 40.5365C3.60466 40.6156 3.45668 40.7591 3.4464 40.8705C3.31897 40.7913 3.44058 40.6903 3.47723 40.5365C3.22683 40.0867 3.86261 40.0107 3.45841 39.5242C3.15798 40.1028 2.84009 40.1408 2.7726 40.6286C3.18572 40.532 3.08603 40.8821 3.4947 41.077C3.11959 41.4915 3.08021 40.7019 2.61434 40.8835C1.69832 43.022 0.879261 43.8671 0.958029 45.4463C0.427758 45.3524 0.620951 46.1787 0.399655 46.6298C1.06627 46.2198 0.433215 47.2392 1.03817 47.4972C1.33414 47.2101 0.94157 47.084 1.07346 46.8717C1.58317 47.1882 1.10256 47.7726 1.88769 48.0247C2.06033 49.0736 2.71493 50.0098 4.08446 50.7425C6.50015 50.3593 8.59387 48.5989 10.8003 47.3205C10.7153 47.2678 10.5937 47.3688 10.4663 47.2897C10.5982 47.0773 10.7623 47.0026 10.9585 47.0657C10.9952 46.9118 11.1329 46.8796 11.2442 46.8899C11.6985 46.348 12.2976 46.4258 12.7357 45.815C12.5658 45.7095 12.4178 45.853 12.264 45.8164C13.0728 45.0826 13.4479 44.6681 14.2478 44.5174C14.1512 44.1043 13.9665 44.4016 13.6589 44.3283C13.6223 44.4821 13.527 44.5407 13.3732 44.5041C13.3205 44.589 13.2677 44.674 13.215 44.7589C13.1139 44.6373 13.2458 44.4249 13.3732 44.5041C13.4787 44.3342 13.5476 44.3181 13.6589 44.3283C14.3358 43.807 15.0874 43.4497 15.7701 43.1085C16.4412 42.407 17.7025 42.3662 17.9912 41.4273C17.8799 41.417 17.8272 41.502 17.6997 41.4228C17.5298 41.3173 17.5093 41.54 17.6997 41.4228C17.8844 41.1255 18.1759 41.13 18.4088 41.0392C18.488 40.9118 18.5304 40.9381 18.6154 40.9909C18.6681 40.9059 18.7209 40.821 18.7736 40.736C18.8792 40.5661 18.6565 40.5456 18.7736 40.736C19.0652 40.7405 19.3084 40.5384 19.4769 40.1722C19.6424 40.5692 19.6307 40.2088 19.9383 40.2822C20.1507 40.414 19.7479 40.3993 19.8914 40.5473C20.237 40.9385 20.2987 40.2705 20.6121 40.524C20.8129 40.2955 20.6693 40.1475 20.8012 39.9352C20.6899 39.9249 20.7002 39.8136 20.7529 39.7286C20.8321 39.6012 20.6094 39.5806 20.7529 39.7286C20.7954 39.755 20.8379 39.7814 20.8804 39.8077C21.1691 38.8688 21.8546 39.471 22.2136 38.9877C22.1125 38.8661 22.2503 38.8339 22.2927 38.8602C22.3719 38.7328 22.4568 38.7856 22.4993 38.8119C22.4935 38.6318 22.5829 38.393 22.7675 38.0957C22.7675 38.0957 22.725 38.0693 22.6826 38.0429C22.5346 38.1864 22.5024 38.0487 22.5551 37.9638C22.6343 37.8364 22.4116 37.8158 22.5551 37.9638C22.5976 37.9902 22.6401 38.0165 22.6826 38.0429C22.6928 37.9316 22.7778 37.9843 22.8203 38.0107C23.0049 37.7134 23.1529 37.5699 23.3917 37.6593C23.4444 37.5743 23.5133 37.5582 23.5982 37.611C23.7301 37.3986 23.8678 37.3664 24.0641 37.4294C24.1535 37.1907 24.3234 37.2962 24.4289 37.1263C24.7263 37.3109 24.1915 37.5086 24.0641 37.4294C24.0377 37.4719 23.985 37.5568 23.9322 37.6418C23.9747 37.6682 24.0172 37.6946 24.0596 37.7209C24.2501 37.6038 24.1607 37.8425 24.0596 37.7209C24.0069 37.8059 23.9541 37.8908 23.9014 37.9758C23.7739 37.8967 23.8955 37.7956 23.9322 37.6418C23.8209 37.6315 23.7256 37.6901 23.5982 37.611C23.5616 37.7648 23.4766 37.712 23.3917 37.6593C23.3022 37.898 23.106 37.835 22.9477 38.0899C23.2509 38.4547 22.4876 38.4516 22.7059 38.7637C22.9549 38.7417 23.1717 38.5821 23.4047 38.4913C23.2348 38.3858 23.1073 38.3067 23.2817 38.1207C23.3827 38.2423 24.0816 37.97 23.9188 38.5163C24.1768 37.9114 24.9869 37.6493 25.6433 37.3506C25.3459 37.166 25.3929 36.9009 25.0061 36.955C24.9695 37.1088 24.8845 37.056 24.842 37.0297C24.6721 36.9242 24.6516 37.1468 24.842 37.0297C24.8523 36.9183 24.9636 36.9286 25.0061 36.955C25.0589 36.87 25.1116 36.7851 25.138 36.7426C25.037 36.621 25.1747 36.5888 25.2171 36.6152C25.2699 36.5302 25.3226 36.4453 25.3754 36.3603C25.5234 36.2168 25.2582 36.1699 25.3754 36.3603C25.5028 36.4395 25.4237 36.5669 25.3446 36.6943C25.387 36.7207 25.4295 36.7471 25.472 36.7734C25.5775 36.6035 25.6727 36.545 25.7577 36.5977C25.7943 36.4439 25.8793 36.4967 25.9642 36.5494C25.8838 36.2052 26.2441 36.1935 26.5356 36.198C27.0851 35.5975 27.8014 35.8657 28.4094 35.3604C28.282 35.2813 28.3084 35.2388 28.3611 35.1539C28.2073 35.1172 28.1546 35.2022 28.0271 35.123C27.7048 35.4526 27.3078 35.618 26.9049 35.6033C26.773 35.8157 26.6089 35.8904 26.4127 35.8273C26.2808 36.0397 26.1431 36.0719 25.9468 36.0089C25.894 36.0938 25.8413 36.1788 25.7885 36.2637C25.6875 36.1421 25.8194 35.9297 25.9468 36.0089C26.0787 35.7965 26.2164 35.7643 26.4127 35.8273C26.4654 35.7424 26.5182 35.6574 26.5709 35.5725C26.5284 35.5461 26.486 35.5197 26.4435 35.4933C26.4332 35.6047 26.3219 35.5944 26.2369 35.5416C26.2267 35.653 26.1153 35.6427 26.0304 35.5899C25.9937 35.7437 25.8985 35.8023 25.7711 35.7232C25.7344 35.877 25.6495 35.8242 25.607 35.7979C25.5015 35.9678 25.4326 35.9839 25.3213 35.9736C25.2422 36.101 25.1572 36.0483 25.1147 36.0219C25.062 36.1068 25.0092 36.1918 24.9565 36.2767C24.8129 36.1287 24.9873 35.9427 25.1147 36.0219C25.125 35.9105 25.2363 35.9208 25.3213 35.9736C25.3579 35.8198 25.4532 35.7612 25.607 35.7979C25.6173 35.6865 25.7022 35.7393 25.7711 35.7232C25.8502 35.5957 25.9454 35.5372 26.0304 35.5899C26.1095 35.4625 26.152 35.4889 26.2369 35.5416C26.3161 35.4142 26.3585 35.4406 26.4435 35.4933C26.5226 35.3659 26.6179 35.3073 26.7292 35.3176C26.7819 35.2327 26.8347 35.1477 26.8875 35.0627C26.7761 35.0525 26.6809 35.111 26.5535 35.0319C26.426 34.9528 26.363 35.1491 26.5535 35.0319C26.6165 34.8356 26.8128 34.8987 26.8919 34.7712C27.0193 34.8504 26.8977 34.9514 26.8875 35.0627C26.9724 35.1155 27.0676 35.0569 27.1951 35.1361C27.327 34.9237 27.491 34.849 27.6448 34.8857C27.8295 34.5883 28.0946 34.6353 28.3437 34.6133C28.3964 34.5284 28.4228 34.4859 28.4755 34.401C28.0199 34.4712 28.083 34.2749 27.749 34.2441C27.5791 34.1385 27.5321 34.4037 27.749 34.2441C27.9439 33.8354 28.3481 34.3218 28.6338 34.1461C28.7129 34.0187 28.7554 34.045 28.8404 34.0978C28.8667 34.0553 28.8931 34.0128 28.9195 33.9704C28.8345 33.9176 28.7496 33.8649 28.6646 33.8121C28.8126 33.6686 28.9986 33.8429 28.9195 33.9704C28.962 33.9967 29.0044 34.0231 29.0469 34.0495C29.0572 33.9382 29.1685 33.9484 29.2535 34.0012C29.3326 33.8738 29.4073 34.0379 29.3809 34.0803C29.4234 34.1067 29.4659 34.1331 29.4659 34.1331C29.5186 34.0481 29.5714 33.9632 29.6241 33.8782C29.4967 33.7991 29.6344 33.7669 29.6769 33.7933C29.8776 33.5648 29.7766 33.4432 29.4953 33.3274C29.4426 33.4124 29.3898 33.4973 29.3371 33.5823C29.4806 33.7302 29.2579 33.7097 29.3371 33.5823C29.2096 33.5031 29.3576 33.3596 29.3679 33.2483C29.283 33.1955 29.1613 33.2966 29.0339 33.2174C29.0236 33.3288 28.9387 33.276 28.8274 33.2657C28.7263 33.1441 28.6794 33.4093 28.8274 33.2657C28.9065 33.1383 28.949 33.1647 29.0339 33.2174C29.0867 33.1325 29.1394 33.0475 29.1922 32.9626C29.3885 33.0256 29.3782 33.1369 29.3679 33.2483C29.4104 33.2746 29.4529 33.301 29.4953 33.3274C29.5745 33.2 29.7547 33.1941 29.9085 33.2308C29.9876 33.1034 30.1414 33.14 30.2791 33.1078C30.3743 33.0493 30.411 32.8954 30.5384 32.9746C30.66 32.8735 30.7714 32.8838 30.8724 33.0054C30.9515 32.878 30.893 32.7828 30.9032 32.6714C30.7758 32.5923 30.7231 32.6772 30.5693 32.6406C30.559 32.7519 30.4476 32.7416 30.3627 32.6889C30.2733 32.9276 30.0931 32.9335 29.9393 32.8968C29.8602 33.0242 29.8177 32.9979 29.7327 32.9451C29.5628 32.8396 29.5423 33.0623 29.7327 32.9451C29.743 32.8338 29.8543 32.8441 29.9393 32.8968C30.0023 32.7005 30.1561 32.7372 30.2777 32.6361C30.1503 32.557 30.1767 32.5145 30.2294 32.4296C29.8047 32.1658 29.4984 32.5642 29.0898 32.3693C29.0106 32.4967 28.9257 32.4439 28.8832 32.4176C28.8304 32.5025 28.7777 32.5875 28.7249 32.6724C28.5814 32.5244 28.7558 32.3384 28.8832 32.4176C28.8935 32.3062 29.0048 32.3165 29.0898 32.3693C29.2686 31.8918 29.6992 32.3357 29.878 31.8582C29.5968 31.7424 29.4546 32.0661 29.1734 31.9503C29.0298 31.8023 28.9829 32.0675 29.1734 31.9503C29.2261 31.8654 29.2789 31.7804 29.3316 31.6955C29.2891 31.6691 29.2467 31.6427 29.2042 31.6163C29.1514 31.7013 29.0826 31.7174 28.9976 31.6646C28.8657 31.877 28.728 31.9092 28.5318 31.8462C28.3999 32.0586 28.2358 32.1332 28.0395 32.0702C28.0028 32.224 27.9179 32.1713 27.8754 32.1449C27.6908 32.4422 27.4256 32.3953 27.203 32.3747C27.1238 32.5022 27.0814 32.4758 26.9964 32.423C26.907 32.6618 26.7371 32.5563 26.6316 32.7262C26.5042 32.6471 26.6521 32.5035 26.6624 32.3922C26.1116 32.521 25.5344 32.6923 25.048 33.0965C25.1593 33.1067 25.2545 33.0482 25.382 33.1273C25.3922 33.016 25.5036 33.0262 25.5885 33.079C25.6252 32.9252 25.7204 32.8666 25.8478 32.9457C25.8845 32.7919 25.9694 32.8447 26.0119 32.8711C26.2287 32.7114 26.1818 32.9766 26.0119 32.8711C26.0016 32.9824 25.9167 32.9297 25.8478 32.9457C25.7687 33.0732 25.6735 33.1318 25.5885 33.079C25.5094 33.2064 25.4669 33.1801 25.382 33.1273C25.3292 33.2123 25.2764 33.2972 25.2237 33.3822C25.0538 33.2766 25.0377 33.2078 25.048 33.0965C21.8499 34.171 18.4376 36.3486 15.5999 37.4115C15.4139 37.2371 16.0439 36.9809 16.1275 36.562C16.0028 37.4262 16.8102 36.2208 16.7297 35.8765C16.7019 35.4473 17.1003 35.7536 17.3847 35.1061C17.4857 35.2277 17.3802 35.3976 17.2747 35.5676C17.4182 35.7155 17.8666 34.9934 17.6703 34.9304C17.5224 35.0739 17.4902 34.9362 17.5429 34.8513C17.3891 34.8146 17.31 34.9421 17.2572 35.027C17.0873 34.9215 17.2617 34.7355 17.3408 34.6081C17.4888 34.4645 17.5796 34.6975 17.5429 34.8513C17.5854 34.8777 17.6279 34.904 17.6703 34.9304C17.9927 34.6009 17.9136 34.7283 17.8331 34.384C17.9869 34.4207 18.1568 34.5262 18.4147 33.9213C18.2082 33.9696 17.9913 34.1292 17.8947 33.7161C18.2815 33.6619 18.5716 33.1947 19.0652 33.4424C18.9159 33.1142 19.1372 32.6631 19.1255 32.3027C19.2999 32.1167 19.2266 32.4243 19.4654 32.5137C19.5709 32.3438 19.4434 32.2647 19.5753 32.0523C19.5329 32.0259 19.4904 31.9995 19.4904 31.9995C19.5695 31.8721 19.6017 32.0098 19.5753 32.0523C19.7028 32.1314 19.798 32.0729 19.9093 32.0831C20.1306 31.632 20.0823 31.4254 20.516 31.1062C20.3197 31.0431 20.1717 31.1867 20.0179 31.15C20.4941 30.8571 20.7212 30.5862 20.7887 30.0984C20.6612 30.0192 20.714 29.9343 20.6554 29.8391C20.4913 29.9137 20.3697 30.0148 20.2423 29.9357C20.3317 29.6969 20.4591 29.776 20.6554 29.8391C20.7346 29.7116 20.8195 29.7644 20.9147 29.7058C20.8736 30.1511 21.3923 29.8846 20.8853 30.5115C21.2295 30.431 21.9256 29.2153 22.3535 28.7158C22.2949 28.6206 22.0986 28.5576 22.1778 28.4302C22.0664 28.4199 21.9976 28.436 21.8921 28.6059C21.6153 28.1986 22.3521 28.2442 22.1603 27.8896C22.3932 27.7988 22.3463 28.064 22.7228 28.1212C24.4592 25.6093 27.186 22.8295 28.3246 20.7115C28.6747 20.8111 28.9224 20.3175 29.1862 19.8928C29.0587 19.8136 29.1803 19.7126 29.217 19.5588C29.3855 19.1926 28.6282 19.3697 29.217 19.5588C29.3181 19.6804 29.1964 19.7814 29.1862 19.8928C29.4616 19.8284 29.7312 19.5838 29.9686 19.2015C29.8148 19.1648 29.7459 19.1809 29.6829 19.3772C29.4383 19.1076 29.9936 18.6873 30.2543 19.0258C30.6455 18.6801 30.5797 17.933 30.9401 17.9214C31.4059 17.7398 31.8235 17.3517 32.1767 16.6882C32.0757 16.5666 32.2236 16.4231 32.2867 16.2268C32.4302 16.3748 32.2822 16.5183 32.1767 16.6882C33.894 14.8706 36.0726 13.163 37.6508 10.906C37.4809 10.8004 37.4603 11.0231 37.6508 10.906C37.7299 10.7785 37.7827 10.6936 37.8618 10.5661C37.9146 10.4812 38.0523 10.449 37.9892 10.6453C40.5416 8.05149 43.8953 5.77868 45.5574 1.39606C45.4286 0.845234 44.8603 0.433477 44.0694 0.00116417C43.9008 0.367353 43.5449 0.0874817 43.312 0.178256C42.8224 1.34567 42.0051 0.955838 41.5581 2.14963C41.4659 1.445 41.0922 2.33118 40.7801 2.54938C40.6791 2.42778 40.7846 2.25787 40.8901 2.08797C40.7363 2.05131 40.5722 2.12599 40.3437 1.92525C40.0316 2.14345 39.7621 2.38803 39.4822 2.74394C39.3387 2.59595 39.5819 2.39385 39.6713 2.15509C39.2479 2.36302 38.8831 2.66617 38.5665 3.17589C38.3278 3.08648 38.7762 2.36438 38.9358 2.58122C38.5419 1.98346 37.6817 3.27385 37.1412 3.29131C34.7367 5.74157 32.4334 8.31345 30.0173 10.4033C29.7272 10.8706 29.4209 11.269 29.0767 11.3495C28.9448 11.5618 28.8129 11.7742 28.681 11.9866C23.0853 17.8699 15.8484 26.2066 12.1713 33.9287C12.2563 33.9815 12.3412 34.0342 12.4262 34.087C12.4628 33.9332 12.6797 33.7735 12.5903 34.0123C12.9229 33.5714 13.4223 33.9993 13.7067 33.3519C13.5207 33.1775 13.3302 33.2947 13.2144 33.5759C12.8688 33.1847 13.3669 33.1409 13.5618 32.7322C13.6834 32.6311 13.8533 32.7366 14.0232 32.8422C14.3777 32.6503 13.9999 32.1214 14.3925 32.2475C14.3603 32.1098 14.3969 31.956 14.5024 31.7861C14.6987 31.8491 14.6898 32.4321 14.3925 32.2475C14.2092 33.0165 13.6392 33.8397 13.2274 34.408C14.7659 33.0679 16.5085 29.0296 18.2579 27.3497C18.1144 27.2017 18.3576 26.9996 18.4631 26.8297C18.5905 26.9088 18.3634 27.1798 18.2579 27.3497C18.4014 27.4977 18.2959 27.6676 18.148 27.8111C18.4717 27.9533 18.57 27.1315 18.9259 27.4114C18.8029 27.0407 18.6111 26.6862 19.0229 26.1179C19.1928 26.2234 19.0184 26.4094 19.1195 26.531C20.0029 25.9613 19.9005 25.368 20.7634 25.021C20.9525 24.4322 21.1296 25.1896 20.7634 25.021C20.3897 25.9072 19.3743 26.6893 19.1016 27.6971C19.6203 27.4306 20.0334 27.334 20.2896 27.9639C20.4742 27.6666 20.7394 27.7135 20.8918 27.2785C20.5051 27.3326 20.7219 27.173 20.3821 26.9619C20.303 27.0894 20.2238 27.2168 20.1447 27.3442C20.0861 27.249 19.8898 27.186 19.969 27.0585C19.8152 27.0219 19.7521 27.2182 19.6042 27.3617C19.4021 27.1185 19.931 26.7407 20.0467 26.4594C20.4657 26.543 20.1009 26.8462 19.969 27.0585C20.218 27.0366 20.4876 26.792 20.6723 26.4947C20.7778 26.3248 20.5551 26.3042 20.6723 26.4947C21.2714 26.5725 20.5068 26.0977 20.8613 25.9059C20.7075 25.8692 20.602 26.0391 20.4965 26.209C20.3794 26.0186 20.9597 25.0841 21.1823 25.1046C21.1707 24.7443 21.3303 24.9611 21.4989 24.5949C21.764 24.6418 21.342 25.3215 21.1823 25.1046C21.1721 25.216 21.0241 25.3595 21.1515 25.4386C21.6348 25.7976 21.2351 25.0197 21.7712 25.2937C21.6348 25.7976 22.1079 26.268 22.6032 25.2807C22.5416 25.9487 22.9636 25.2691 23.4528 25.8083C23.2257 26.0792 22.8434 25.8418 22.4933 25.7421C22.0757 26.1302 21.7122 26.9051 21.2361 27.198C21.1686 27.6858 21.0412 27.6066 20.7085 28.0475C20.8784 28.153 20.7144 28.2277 20.6294 28.1749C20.4975 28.3873 20.3393 28.6422 20.181 28.897C20.4725 28.9015 20.6308 28.6466 20.8315 28.4182C21.1083 28.8255 20.266 28.9498 20.4842 29.2619C20.405 29.3893 20.1926 29.2574 20.0227 29.1519C19.8381 29.4492 19.6271 29.789 19.4161 30.1288C19.5435 30.208 19.6709 30.2871 19.7983 30.3662C19.4174 30.6005 19.5507 30.8599 19.2225 31.0092C18.9677 30.8509 19.4438 30.5581 19.4644 30.3354C18.918 30.1727 19.2167 30.829 18.682 31.0267C18.2469 30.8742 18.8711 30.4378 18.3247 30.2751C18.2616 30.4714 18.3363 30.6355 18.1356 30.864C18.5018 31.0325 18.2849 31.1921 18.6028 31.1541C18.6994 31.5672 18.0051 31.548 18.4884 31.907C18.5412 31.8221 18.5939 31.7371 18.6467 31.6522C18.7902 31.8002 18.6158 31.9862 18.4884 31.907C18.4093 32.0345 18.3243 31.9817 18.2027 32.0828C18.7388 32.3568 18.1294 32.3904 18.04 32.6291C18.1674 32.7083 18.2627 32.6497 18.374 32.66C17.2487 33.9034 17.4508 34.1466 16.6684 34.8379C16.6728 34.5464 16.9791 34.148 17.3059 33.527C17.3689 33.3307 16.4385 34.1655 17.0452 33.1885C16.7273 33.2265 16.5221 33.7465 16.1881 33.7157C16.2731 33.7684 16.2628 33.8798 16.1837 34.0072C16.2847 34.1288 16.1895 34.1874 16.1045 34.1346C16.1689 34.4101 15.8569 34.6283 15.5815 34.6926C15.5287 34.7776 15.4759 34.8626 15.4232 34.9475C15.5828 35.1643 15.5681 35.5672 15.9329 35.264C15.7894 35.1161 15.9271 35.0839 16.012 35.1366C16.0384 35.0941 16.0648 35.0517 16.0912 35.0092C15.7777 34.7557 16.3125 34.558 16.4077 34.4995C16.1426 34.4525 16.591 33.7304 16.777 33.9048C17.064 34.2008 16.4224 34.0966 16.4077 34.4995C16.6948 34.7954 16.122 34.6752 16.0912 35.0092C16.2186 35.0883 16.0545 35.163 16.012 35.1366C15.9857 35.1791 15.9593 35.2216 15.9329 35.264C15.9285 35.5556 15.5167 36.1238 15.121 36.761C15.3598 36.8504 15.4859 36.4578 15.789 36.8227C15.6205 37.1888 15.3231 37.0042 15.0419 36.8884C14.8309 37.2282 14.5774 37.5417 14.6418 37.8171C14.8175 38.1028 14.1084 38.4864 13.9019 38.5347C11.987 39.8176 9.99159 40.7561 8.11917 42.0654C8.2466 42.1445 8.09861 42.288 8.08833 42.3993C7.96091 42.3202 8.10889 42.1767 8.11917 42.0654C7.84375 42.1298 7.55806 42.3055 7.26209 42.5925C7.30457 42.6189 7.34704 42.6453 7.38952 42.6717C7.60636 42.512 7.55942 42.7772 7.38952 42.6717C7.31038 42.7991 7.23571 42.635 7.26209 42.5925C7.07609 42.4182 6.95448 42.5192 6.83869 42.8005C7.35323 41.1189 7.92188 39.824 8.85227 38.9892C9.559 35.9556 13.5649 31.969 14.4477 27.5144C13.2919 27.3853 12.3972 25.8879 11.795 26.5734C11.6939 26.4518 11.6456 26.2452 11.82 26.0592C11.5607 26.1925 11.2208 25.9814 11.042 26.459C10.856 26.2846 11.2208 25.9814 11.1037 25.791C10.8708 25.8818 10.6334 26.264 10.5762 26.6405C10.125 26.4192 10.8019 25.8979 10.7639 25.58C10.361 25.5652 10.1514 26.3767 9.87152 26.7327C9.95647 26.7854 9.87734 26.9128 9.84068 27.0666C9.71325 26.9875 9.81876 26.8176 9.87152 26.7327ZM9.4231 27.4548C9.47586 27.3698 9.58137 27.1999 9.7088 27.279C9.58719 27.3801 9.50806 27.5075 9.4231 27.4548ZM9.02881 28.5636C9.01271 28.4947 9.06101 28.7013 9.02881 28.5636V28.5636ZM8.74276 30.4459C8.69 30.5309 8.63725 30.6158 8.58449 30.7008C8.49954 30.648 8.41459 30.5953 8.32963 30.5425C8.38239 30.4576 8.43514 30.3726 8.4879 30.2877C8.57285 30.3404 8.6578 30.3932 8.74276 30.4459ZM8.32518 30.834C8.80852 31.193 7.74933 31.477 8.32518 30.834C8.40431 30.7066 8.20803 30.6436 8.32518 30.834ZM8.05695 31.5503C7.97782 31.6777 7.92506 31.7627 7.84593 31.8901C7.90451 31.9854 8.05831 32.022 8.02166 32.1758C7.36978 32.183 7.56915 31.4828 8.05695 31.5503ZM9.34497 29.7605C9.2864 29.6653 9.37717 29.8982 9.34497 29.7605V29.7605ZM7.94835 32.4834C8.04358 32.4249 8.14909 32.2549 8.23404 32.3077C8.18128 32.3927 8.07578 32.5626 7.94835 32.4834ZM7.7065 33.1572C7.6904 33.0884 7.7387 33.2949 7.7065 33.1572V33.1572ZM2.69483 41.2277C2.79006 41.1692 2.82672 41.0154 2.95415 41.0945C2.90139 41.1794 2.82226 41.3069 2.69483 41.2277ZM7.59653 33.6187C7.69176 33.5601 7.7548 33.3638 7.88222 33.4429C7.78699 33.5015 7.72396 33.6978 7.59653 33.6187ZM2.15392 42.9518C2.13782 42.883 2.18612 43.0895 2.15392 42.9518V42.9518ZM7.53486 34.2866C7.65647 34.1856 7.69313 34.0318 7.82056 34.1109C7.72533 34.1695 7.68867 34.3233 7.53486 34.2866ZM4.33877 39.7178C4.32267 39.6489 4.37097 39.8555 4.33877 39.7178V39.7178ZM7.29301 34.9604C7.34577 34.8755 7.45127 34.7056 7.5787 34.7847C7.48347 34.8433 7.42044 35.0396 7.29301 34.9604ZM7.05562 35.3427C7.13475 35.2153 7.21388 35.0879 7.34131 35.167C7.24608 35.2256 7.20942 35.3794 7.05562 35.3427ZM6.76547 35.81C6.8446 35.6825 6.93401 35.4438 7.13029 35.5068C6.9823 35.6503 6.8929 35.8891 6.76547 35.81ZM6.52362 36.4838C6.64077 36.6742 6.37563 36.6273 6.52362 36.4838C6.60275 36.3563 6.38009 36.3358 6.52362 36.4838ZM3.01545 42.1331C2.95688 42.0379 3.04765 42.2708 3.01545 42.1331V42.1331ZM2.77805 42.5154C2.74586 42.3777 2.83663 42.6106 2.77805 42.5154V42.5154ZM2.56704 42.8552C2.50846 42.76 2.59924 42.9929 2.56704 42.8552V42.8552ZM6.41365 36.9452C6.35508 36.8499 6.40337 37.0565 6.41365 36.9452V36.9452ZM5.83781 37.5881C5.89056 37.5032 5.9697 37.3758 6.09713 37.4549C6.0019 37.5135 5.96524 37.6673 5.83781 37.5881ZM5.41132 38.5593C5.58568 38.3733 5.63707 37.8166 5.89193 37.9749C5.74394 38.1184 5.66618 38.7175 5.41132 38.5593ZM5.28525 38.9518C5.26916 38.883 5.31745 39.0896 5.28525 38.9518V38.9518ZM6.23037 37.7142C6.24065 37.6029 6.28895 37.8094 6.23037 37.7142V37.7142ZM5.09616 39.5407C5.10644 39.4294 5.12836 39.6784 5.09616 39.5407V39.5407ZM5.83026 38.6429C5.84054 38.5315 5.86246 38.7806 5.83026 38.6429V38.6429ZM1.13513 46.2037C1.25227 46.3941 1.02962 46.3736 1.13513 46.2037C1.25673 46.1026 1.01797 46.0132 1.13513 46.2037ZM3.84752 42.1201C3.83142 42.0513 3.87972 42.2578 3.84752 42.1201V42.1201ZM14.8837 29.8452C14.8252 29.7499 14.9159 29.9829 14.8837 29.8452V29.8452ZM14.2288 30.6156C14.2815 30.5306 14.387 30.3607 14.5145 30.4398C14.3928 30.5409 14.3562 30.6947 14.2288 30.6156ZM13.7012 31.4651C13.7803 31.3377 13.8698 31.0989 14.0397 31.2044C13.9181 31.3055 13.8286 31.5442 13.7012 31.4651ZM13.6704 31.7991C13.6118 31.7038 13.7026 31.9368 13.6704 31.7991V31.7991ZM12.9363 32.6969C13.1106 32.5109 13.2148 31.8693 13.5121 32.0539C13.2953 32.2136 13.1911 32.8552 12.9363 32.6969ZM12.6989 33.0792C12.778 32.9518 12.8571 32.8243 12.9846 32.9035C12.8893 32.962 12.8263 33.1583 12.6989 33.0792ZM12.5362 33.6256C12.4776 33.5303 12.5684 33.7633 12.5362 33.6256V33.6256ZM15.3277 29.4146C15.2691 29.3193 15.3174 29.5259 15.3277 29.4146V29.4146ZM16.5643 28.1814C16.5482 28.1125 16.5965 28.3191 16.5643 28.1814V28.1814ZM15.8785 29.2858C15.8888 29.1745 15.9107 29.4235 15.8785 29.2858V29.2858ZM15.2235 30.0562C15.3715 29.9126 15.4346 29.7164 15.5884 29.753C15.4829 29.9229 15.4198 30.1192 15.2235 30.0562ZM14.7135 31.4463C14.4541 31.5795 14.2914 32.1259 13.9311 32.1375C14.2007 31.8929 14.3254 31.0287 14.7135 31.4463ZM17.6941 26.6464C17.678 26.5776 17.7263 26.7841 17.6941 26.6464V26.6464ZM14.0277 32.5506C14.0379 32.4393 14.0862 32.6459 14.0277 32.5506V32.5506ZM16.0498 29.863C15.997 29.9479 15.9443 30.0329 15.8915 30.1178C15.8066 30.0651 15.7216 30.0123 15.6367 29.9596C15.6894 29.8746 15.7422 29.7897 15.7949 29.7047C15.8799 29.7575 15.9648 29.8102 16.0498 29.863ZM15.1574 31.0157C15.1413 30.9468 15.1896 31.1534 15.1574 31.0157V31.0157ZM17.1532 28.3705C16.7781 28.785 16.5157 29.6814 16.1289 29.7356C16.0484 29.3913 17.0785 28.2064 17.1532 28.3705ZM15.9398 30.3244C15.8871 30.4094 15.8343 30.4943 15.7816 30.5793C15.6966 30.5265 15.6117 30.4738 15.5267 30.421C15.5795 30.336 15.6322 30.2511 15.685 30.1661C15.7699 30.2189 15.8549 30.2717 15.9398 30.3244ZM15.4431 30.8399C16.0525 30.8064 14.882 31.0801 15.4431 30.8399V30.8399ZM15.1266 31.3497C15.1105 31.2808 15.1588 31.4874 15.1266 31.3497V31.3497ZM18.2038 26.963C18.1452 26.8677 18.236 27.1007 18.2038 26.963V26.963ZM8.99817 41.7872C8.93959 41.692 9.03036 41.9249 8.99817 41.7872V41.7872ZM22.0021 20.8463C22.0549 20.7614 22.134 20.634 22.2614 20.7131C22.1662 20.7717 22.0871 20.8991 22.0021 20.8463ZM19.3072 25.4705C19.2486 25.3752 19.2969 25.5818 19.3072 25.4705V25.4705ZM25.4544 16.0452C25.4383 15.9763 25.4866 16.1829 25.4544 16.0452V16.0452ZM19.9635 25.1718C19.8053 25.4266 19.6148 25.5438 19.3921 25.5232C19.5768 25.2259 19.7248 25.0823 19.9635 25.1718ZM19.102 25.9904C19.1972 25.9319 19.2339 25.7781 19.3613 25.8572C19.3086 25.9422 19.2294 26.0696 19.102 25.9904ZM26.1094 15.2748C26.0933 15.2059 26.1416 15.4125 26.1094 15.2748V15.2748ZM19.8888 25.0077C20.2626 24.1215 20.4558 24.9477 19.8888 25.0077V25.0077ZM26.3996 14.8075C26.5212 14.7065 26.5578 14.5527 26.6852 14.6318C26.59 14.6904 26.527 14.8866 26.3996 14.8075ZM26.1885 15.1473C26.2838 15.0887 26.3204 14.9349 26.4742 14.9716C26.3526 15.0727 26.316 15.2265 26.1885 15.1473ZM21.5944 22.8297C21.9137 23.2634 20.9426 22.8369 21.5944 22.8297V22.8297ZM21.3834 23.1695C21.3673 23.1007 21.4156 23.3073 21.3834 23.1695V23.1695ZM20.9878 23.8067C20.8603 23.7276 20.9498 23.4888 21.146 23.5518C21.0669 23.6793 21.1841 23.8697 20.9878 23.8067ZM22.4077 21.8045C22.6845 22.2118 21.7558 21.8117 22.4077 21.8045V21.8045ZM21.8318 22.4474C21.9271 22.3889 21.9901 22.1926 22.1175 22.2717C21.9959 22.3728 21.9593 22.5266 21.8318 22.4474ZM23.111 21.2406C22.629 21.3533 23.0349 20.6049 23.2209 20.7792C23.2209 20.7792 23.0421 21.2567 23.111 21.2406ZM21.8198 23.7937C21.4112 23.5988 21.5194 24.3723 21.2923 24.6432C21.2073 24.5905 21.0799 24.5113 20.9525 24.4322C21.3964 24.0016 21.3115 23.9489 21.4317 23.3761C21.6808 23.3542 21.9781 23.5388 21.8198 23.7937ZM23.9242 20.2154C23.892 20.0777 23.9139 20.3267 23.9242 20.2154V20.2154ZM23.3185 23.3706C23.2336 23.3179 23.1486 23.2651 23.0637 23.2124C22.5231 23.2298 22.6899 24.0986 23.0637 23.2124C23.0739 23.1011 23.0154 23.0058 23.0945 22.8784C23.4343 23.0894 23.7316 23.2741 23.3185 23.3706C23.3096 23.9537 23.3887 23.8262 23.9132 23.7399C23.5381 24.1544 23.56 24.4034 23.2582 24.5103C23.3051 24.2452 23.0941 24.585 22.9242 24.4795C23.0297 24.3096 23.2993 24.065 23.0869 23.9331C22.9023 24.2305 22.7016 24.4589 22.4262 24.5233C22.4892 24.327 22.0702 24.2435 22.2021 24.0311C22.0908 24.0208 21.9956 24.0794 21.8681 24.0002C22.085 23.8406 22.7458 23.2504 22.11 23.3264C22.0089 23.2048 21.962 23.47 22.11 23.3264C22.4221 23.1082 21.8216 22.5588 22.4207 22.6365C22.5115 22.8695 22.3165 23.2781 22.7297 23.1815C22.3546 23.596 22.6255 23.8231 22.6635 24.141C23.0811 23.7529 22.8951 23.5786 23.3185 23.3706ZM24.8474 18.7287C24.9001 18.6438 25.0057 18.4739 25.0906 18.5266C25.0115 18.654 24.9323 18.7815 24.8474 18.7287ZM23.2706 21.4575C23.2545 21.3886 23.3028 21.5952 23.2706 21.4575V21.4575ZM24.8662 19.741C25.0567 19.6238 25.0097 19.8889 24.8662 19.741C24.4093 19.3395 24.5863 20.0969 24.8662 19.741ZM24.2948 20.0924C24.3901 20.0338 24.4531 19.8376 24.5805 19.9167C24.5278 20.0016 24.4223 20.1715 24.2948 20.0924ZM24.264 20.4264C24.4075 20.5744 24.1849 20.5538 24.264 20.4264C24.3695 20.2565 24.1469 20.2359 24.264 20.4264ZM23.2089 22.1255C23.1928 22.0566 23.2411 22.2632 23.2089 22.1255V22.1255ZM21.5516 24.51C21.6996 24.3664 21.789 24.1277 21.9164 24.2068C21.8373 24.3342 21.7479 24.573 21.5516 24.51ZM28.9855 12.8231C29.1071 12.7221 29.1965 12.4833 29.3503 12.52C29.2448 12.6899 29.1554 12.9286 28.9855 12.8231ZM26.9764 16.3428C26.9603 16.274 27.0086 16.4806 26.9764 16.3428V16.3428ZM29.8471 12.0044C29.831 11.9356 29.8792 12.1421 29.8471 12.0044V12.0044ZM25.8113 18.5033C25.8216 18.392 25.8435 18.641 25.8113 18.5033V18.5033ZM23.622 22.0289C23.6059 21.96 23.6542 22.1666 23.622 22.0289V22.0289ZM22.0922 24.4925C22.7016 24.4589 21.5574 24.6901 22.0922 24.4925V24.4925ZM30.2119 11.7013C30.1958 11.6324 30.2441 11.839 30.2119 11.7013V11.7013ZM24.6463 20.6638C25.0608 21.0389 25.1108 20.0106 25.5092 20.3168C25.1238 20.8426 24.2082 21.2746 24.0704 21.3068C24.2551 21.0094 24.4397 20.7121 24.6463 20.6638C24.5291 20.4733 24.7518 20.4939 24.6463 20.6638ZM24.0396 21.6408C24.0499 21.5294 24.0718 21.7785 24.0396 21.6408V21.6408ZM25.3804 19.766C25.6572 20.1733 24.686 19.7468 25.3804 19.766V19.766ZM23.9252 22.3937C24.4291 22.53 23.7947 23.0778 23.6087 22.9034C23.7772 22.5372 23.9368 22.7541 23.9252 22.3937C23.1428 23.085 23.7378 21.7476 23.9252 22.3937ZM29.1743 13.9409C29.1157 13.8457 29.164 14.0522 29.1743 13.9409V13.9409ZM28.6203 14.8329C28.5881 14.6952 28.6364 14.9017 28.6203 14.8329V14.8329ZM27.0377 17.3815C26.9791 17.2862 27.0274 17.4928 27.0377 17.3815V17.3815ZM24.2153 21.9264C24.1831 21.7887 24.2314 21.9953 24.2153 21.9264V21.9264ZM9.86616 45.0336C10.1429 45.4409 9.1718 45.0144 9.86616 45.0336V45.0336ZM27.4128 16.967C27.4231 16.8557 27.4714 17.0622 27.4128 16.967V16.967ZM28.5426 15.432C28.5265 15.3632 28.5748 15.5697 28.5426 15.432V15.432ZM28.3843 15.6869C28.3682 15.618 28.4165 15.8246 28.3843 15.6869V15.6869ZM24.375 22.1433C24.3589 22.0744 24.4072 22.281 24.375 22.1433V22.1433ZM32.3409 9.31541C32.4361 9.25684 32.4991 9.06056 32.6266 9.13969C32.5474 9.26712 32.4683 9.39455 32.3409 9.31541ZM30.5692 12.4528C30.7596 12.3357 30.7391 12.5584 30.5692 12.4528C30.1077 12.3429 30.3009 13.1691 30.5692 12.4528ZM29.9316 13.7638C29.7895 14.0875 29.6048 14.3848 29.3075 14.2002C29.5243 14.0406 29.709 13.7432 29.9316 13.7638ZM26.1642 19.5464C26.1481 19.4776 26.1964 19.6841 26.1642 19.5464V19.5464ZM25.241 21.0331C25.2512 20.9217 25.2732 21.1708 25.241 21.0331V21.0331ZM22.656 25.1958C22.7615 25.0259 22.6341 24.9467 22.766 24.7343C23.1952 24.7066 22.8845 25.3965 22.656 25.1958ZM16.6858 35.3785C16.8763 35.2613 16.8133 35.4576 16.6858 35.3785C16.4484 35.7607 16.1833 35.7138 16.2374 36.1006C16.4279 35.9834 16.3649 36.1797 16.2374 36.1006C15.7657 36.1019 15.9898 36.5942 15.5386 36.3729C15.7805 35.6991 16.4896 35.3154 16.4618 34.8862C16.8119 34.9859 16.4998 35.2041 16.6858 35.3785ZM15.5691 37.7455C15.3831 37.5711 15.219 37.6458 15.1032 37.927C14.6682 37.7746 14.8792 37.4348 15.0902 37.095C15.2762 37.2693 15.5735 37.454 15.5691 37.7455ZM31.6725 10.9604C31.6828 10.849 31.7047 11.0981 31.6725 10.9604V10.9604ZM28.4281 16.1849C27.914 16.1599 28.6844 16.8149 28.4281 16.1849V16.1849ZM26.6917 18.6969C26.7869 18.6383 26.85 18.442 26.9774 18.5212C26.8822 18.5797 26.8191 18.776 26.6917 18.6969ZM25.3992 20.7782C25.773 19.892 25.9398 20.7608 25.3992 20.7782V20.7782ZM24.6298 22.3015C24.709 22.1741 24.8042 22.1155 24.8891 22.1683C25.0108 22.0672 25.0957 22.12 25.1748 21.9926C25.6948 22.1978 24.8378 22.7249 24.6473 22.8421C24.4729 23.0281 24.574 23.1497 24.7439 23.2552C25.5821 21.7158 25.047 23.62 24.3791 23.5584C24.6531 23.0223 24.3205 23.4631 24.1242 23.4001C24.2297 23.2302 24.24 23.1189 24.155 23.0661C24.054 22.9445 23.9646 23.1833 24.155 23.0661C24.3294 22.8801 24.1595 22.7746 24.265 22.6047C24.3924 22.6838 24.5199 22.763 24.6473 22.8421C24.6678 22.6194 25.1704 22.2841 24.8891 22.1683C24.81 22.2957 24.7148 22.3543 24.6298 22.3015C24.4407 22.8904 24.2212 22.1066 24.6298 22.3015ZM19.9874 29.7774C20.2803 30.2535 19.3678 29.9223 19.9874 29.7774C20.0666 29.65 19.8703 29.5869 19.9874 29.7774ZM19.24 31.5498C19.4568 31.3901 19.3674 31.6289 19.24 31.5498C19.2136 31.5922 19.1872 31.6347 19.1872 31.6347C19.3044 31.8252 19.0817 31.8046 19.1872 31.6347C18.7946 31.5086 18.7464 31.3021 19.0159 31.0575C19.366 31.1572 19.054 31.3754 19.24 31.5498ZM27.4741 18.0056C27.458 17.9368 27.5063 18.1433 27.4741 18.0056V18.0056ZM26.3399 19.8321C26.3238 19.7632 26.3721 19.9698 26.3399 19.8321V19.8321ZM21.0425 28.0783C21.1905 27.9348 21.2536 27.7385 21.4074 27.7752C21.3018 27.9451 21.1963 28.115 21.0425 28.0783ZM32.5341 10.1417C32.5443 10.0303 32.5926 10.2369 32.5341 10.1417V10.1417ZM31.5581 11.7133C31.542 11.6444 31.5903 11.851 31.5581 11.7133V11.7133ZM29.9491 14.3043C29.9594 14.193 30.0077 14.3996 29.9491 14.3043V14.3043ZM27.074 18.9343C27.0579 18.8654 27.1062 19.072 27.074 18.9343V18.9343ZM25.4605 21.8168C25.9237 20.6919 26.1593 21.5445 25.4605 21.8168C25.0299 21.3729 25.1807 22.1728 25.4605 21.8168ZM22.3833 26.2036C22.4785 26.145 22.5416 25.9487 22.669 26.0278C22.5738 26.0864 22.5107 26.2827 22.3833 26.2036ZM21.7766 27.1805C21.9935 27.0209 22.0976 26.3793 22.3525 26.5375C22.1356 26.6972 22.0579 27.2963 21.7766 27.1805ZM32.4505 10.5606C32.4344 10.4917 32.4827 10.6983 32.4505 10.5606V10.5606ZM31.369 12.3021C31.3793 12.1908 31.4276 12.3974 31.369 12.3021V12.3021ZM30.3931 13.8738C30.377 13.8049 30.4253 14.0115 30.3931 13.8738V13.8738ZM27.729 18.1639C27.7129 18.095 27.7612 18.3016 27.729 18.1639V18.1639ZM23.8998 24.6145C23.683 24.7741 23.4983 25.0714 23.2757 25.0509C23.45 24.8649 23.5542 24.2233 23.8998 24.6145ZM21.7413 27.806C21.7252 27.7372 21.7735 27.9437 21.7413 27.806V27.806ZM19.7631 30.9917C19.747 30.9229 19.7953 31.1295 19.7631 30.9917V30.9917ZM19.0773 32.0961C19.0612 32.0273 19.1094 32.2338 19.0773 32.0961V32.0961ZM18.1058 33.3762C18.2113 33.2063 18.2743 33.0101 18.4706 33.0731C18.3226 33.2166 18.2596 33.4129 18.1058 33.3762ZM31.6547 12.1264C32.0428 12.544 31.0659 11.9373 31.6547 12.1264V12.1264ZM29.4654 15.6519C29.8271 16.112 28.8502 15.5053 29.4654 15.6519V15.6519ZM26.2738 20.7916C26.2152 20.6964 26.306 20.9293 26.2738 20.7916V20.7916ZM23.8515 24.4079C23.9307 24.2805 24.0098 24.153 24.1372 24.2322C24.042 24.2908 23.9789 24.487 23.8515 24.4079ZM22.1898 27.0839C22.8828 26.6314 22.2233 27.6933 22.1898 27.0839V27.0839ZM21.2138 28.6555C21.2666 28.5706 21.3457 28.4432 21.4731 28.5223C21.3779 28.5809 21.3412 28.7347 21.2138 28.6555ZM21.1038 29.117C21.0453 29.0217 21.136 29.2547 21.1038 29.117V29.117ZM12.8214 42.4546C12.7628 42.3593 12.8536 42.5923 12.8214 42.4546V42.4546ZM30.8062 13.7772C30.7476 13.6819 30.7959 13.8885 30.8062 13.7772V13.7772ZM26.9287 20.0212C27.3168 20.4388 26.3399 19.8321 26.9287 20.0212V20.0212ZM26.6122 20.5309C26.7866 20.3449 26.7396 20.61 26.6122 20.5309C26.4687 20.3829 26.4217 20.6481 26.6122 20.5309ZM22.2072 27.6245C22.175 27.4868 22.1969 27.7358 22.2072 27.6245V27.6245ZM19.4948 31.708C19.6003 31.5381 19.6897 31.2994 19.8597 31.4049C19.738 31.5059 19.6486 31.7447 19.4948 31.708ZM18.8837 32.9765C18.8251 32.8813 18.8734 33.0878 18.8837 32.9765V32.9765ZM12.1839 43.7655C12.1253 43.6703 12.1736 43.8768 12.1839 43.7655V43.7655ZM11.5039 45.0501C11.4145 45.2888 11.2343 45.2947 11.0805 45.258C11.1699 45.0192 11.3501 45.0134 11.5039 45.0501ZM31.1022 13.4901C31.1124 13.3788 31.1607 13.5853 31.1022 13.4901V13.4901ZM29.9679 15.3166C29.8405 15.2375 29.9724 15.0251 30.1262 15.0617C30.0471 15.1892 30.2067 15.406 29.9679 15.3166ZM27.6204 19.097C27.9633 18.5448 28.1565 19.371 27.6204 19.097C27.594 19.1395 27.5676 19.1819 27.5412 19.2244C27.8971 19.5043 27.1398 19.6814 27.5412 19.2244C27.4402 19.1028 27.5779 19.0706 27.6204 19.097ZM26.1696 21.4332C26.1535 21.3643 26.2018 21.5709 26.1696 21.4332V21.4332ZM25.8795 21.9004C25.8634 21.8316 25.9117 22.0381 25.8795 21.9004V21.9004ZM25.7212 22.1553C25.7051 22.0864 25.7534 22.293 25.7212 22.1553V22.1553ZM13.1071 42.2788C13.1598 42.1939 13.239 42.0664 13.3239 42.1192C13.2712 42.2042 13.192 42.3316 13.1071 42.2788ZM12.5062 43.436C12.8255 43.8696 11.8544 43.4432 12.5062 43.436V43.436ZM30.4163 14.5945C30.538 14.4934 30.5746 14.3396 30.702 14.4188C30.6493 14.5037 30.5702 14.6312 30.4163 14.5945ZM26.407 21.0509C26.5286 20.9499 26.618 20.7111 26.7455 20.7902C26.6663 20.9177 26.5769 21.1564 26.407 21.0509ZM23.0746 26.986C23.0321 26.9596 22.9896 26.9332 22.9471 26.9068C23.1582 26.567 23.3164 26.3122 23.5494 26.2214C23.6285 26.094 23.4322 26.0309 23.5494 26.2214C23.6343 26.2741 23.7559 26.1731 23.8834 26.2522C23.646 26.6345 23.3442 26.7414 23.0746 26.986C23.536 27.0959 23.1287 27.3727 23.0393 27.6115C22.72 27.1778 22.6906 27.9835 22.4196 27.7564C22.323 27.3432 22.8108 27.4107 22.6878 27.0401C22.8738 27.2144 22.9954 27.1134 23.0746 26.986ZM21.7338 28.8607C21.7441 28.7494 21.7924 28.956 21.7338 28.8607V28.8607ZM11.7896 44.8743C11.7735 44.8055 11.8218 45.012 11.7896 44.8743V44.8743ZM11.3412 45.5964C11.4731 45.3841 11.6108 45.3519 11.8071 45.4149C12.1075 44.8363 12.3007 45.6626 11.8071 45.4149C11.7016 45.5848 11.5375 45.6595 11.3412 45.5964C11.1507 45.7136 11.2138 45.5173 11.3412 45.5964ZM10.6554 46.7008C10.7345 46.5734 10.8297 46.5148 10.9411 46.5251C11.073 46.3127 11.2107 46.2805 11.407 46.3436C11.5125 46.1736 11.4964 46.1048 11.4378 46.0096C11.3104 45.9304 11.2473 46.1267 11.4378 46.0096C11.5169 45.8821 11.6121 45.8236 11.7235 45.8338C11.5871 46.3377 11.977 45.5204 12.1849 45.9438C11.9578 46.2148 11.7146 46.4169 11.407 46.3436C11.2751 46.5559 11.1374 46.5881 10.9411 46.5251C10.878 46.7214 10.8092 46.7375 10.6554 46.7008C10.4649 46.818 10.528 46.6217 10.6554 46.7008ZM30.9877 14.243C30.9716 14.1742 31.0199 14.3807 30.9877 14.243V14.243ZM28.8512 17.6836C29.2818 18.1276 28.3048 17.5209 28.8512 17.6836V17.6836ZM27.3477 20.1048C27.3316 20.0359 27.3799 20.2425 27.3477 20.1048V20.1048ZM25.4485 23.1631C25.7137 23.21 25.8719 22.9552 26.121 22.9332C25.7298 23.2789 26.0226 23.755 25.5451 23.5762C25.7195 23.3902 25.5921 23.3111 25.4485 23.1631C25.2594 23.7519 25.0823 22.9945 25.4485 23.1631ZM23.7604 25.8816C24.3698 25.848 23.2257 26.0792 23.7604 25.8816V25.8816ZM21.2063 29.7103C21.3542 29.5667 21.4173 29.3705 21.5711 29.4071C21.4919 29.5345 21.4025 29.7733 21.2063 29.7103ZM30.1392 15.8938C30.5009 16.3539 29.5665 15.7736 30.1392 15.8938V15.8938ZM24.49 25.2753C24.6072 25.4657 24.3845 25.4452 24.49 25.2753C24.9604 24.8022 23.8162 25.0334 24.49 25.2753ZM14.181 41.592C14.3715 41.4749 14.3245 41.74 14.181 41.592C13.7723 41.3971 13.9919 42.1809 14.181 41.592ZM12.9721 43.2544C13.0937 43.1534 13.1304 42.9996 13.2578 43.0787C13.1626 43.1373 13.1259 43.2911 12.9721 43.2544ZM29.9984 16.6892C30.1156 16.8797 29.8768 16.7903 29.9984 16.6892C30.5742 16.0462 29.4726 16.3038 29.9984 16.6892ZM28.2092 19.2861C28.5709 19.7461 27.6365 19.1658 28.2092 19.2861V19.2861ZM25.3077 23.9585C25.318 23.8472 25.3399 24.0962 25.3077 23.9585V23.9585ZM25.0967 24.2983C25.4584 24.7584 24.524 24.1781 25.0967 24.2983V24.2983ZM29.5017 17.2047C29.5808 17.0773 29.6702 16.8386 29.8401 16.9441C29.7185 17.0451 29.6291 17.2839 29.5017 17.2047ZM12.906 44.2139C12.969 44.0176 13.0379 44.0015 13.1917 44.0382C13.3397 43.8947 13.3191 44.1173 13.1917 44.0382C13.1126 44.1656 13.0173 44.2242 12.906 44.2139C12.7169 44.8028 12.5237 43.9765 12.906 44.2139ZM29.3609 18.0002C29.3287 17.8624 29.3931 18.1379 29.3609 18.0002V18.0002ZM28.7542 18.9771C28.722 18.8394 28.7864 19.1148 28.7542 18.9771V18.9771ZM28.0157 20.1665C27.9571 20.0712 28.0479 20.3042 28.0157 20.1665V20.1665ZM26.5341 22.8366C26.6512 23.0271 26.4125 22.9377 26.5341 22.8366C26.0888 22.7955 26.4156 22.1745 26.644 22.3752C26.4697 22.5612 26.5971 22.6404 26.5341 22.8366ZM14.0358 42.6789C13.9772 42.5837 14.068 42.8166 14.0358 42.6789V42.6789ZM12.8707 44.8394C13.0187 44.6959 12.9718 44.961 12.8707 44.8394C12.3346 44.5654 12.5278 45.3916 12.8707 44.8394ZM30.8599 15.8705C30.8014 15.7753 30.8497 15.9818 30.8599 15.8705V15.8705ZM27.3781 21.4774C27.3196 21.3822 27.3679 21.5887 27.3781 21.4774V21.4774ZM27.1408 21.8597C27.0822 21.7645 27.1305 21.971 27.1408 21.8597V21.8597ZM15.2183 41.059C15.1597 40.9638 15.208 41.1703 15.2183 41.059V41.059ZM33.9255 11.1234C33.9094 11.0546 33.9577 11.2611 33.9255 11.1234V11.1234ZM30.4965 16.6454C30.4804 16.5765 30.5287 16.7831 30.4965 16.6454V16.6454ZM28.3599 20.086C28.9224 20.3175 28.1064 20.3994 28.0389 20.8872C27.5029 20.6131 28.2705 20.3247 28.3599 20.086ZM27.8324 20.9355C28.1516 21.3692 27.1805 20.9427 27.8324 20.9355V20.9355ZM26.9883 22.2947C26.9986 22.1834 27.0469 22.39 26.9883 22.2947V22.2947ZM13.6415 43.7878C13.6254 43.7189 13.6737 43.9255 13.6415 43.7878V43.7878ZM34.5014 10.4805C34.4853 10.4116 34.5336 10.6182 34.5014 10.4805V10.4805ZM30.3865 17.1068C30.3968 16.9955 30.4187 17.2445 30.3865 17.1068V17.1068ZM28.4391 19.9585C28.5343 19.8999 28.6398 19.73 28.7248 19.7828C28.672 19.8678 28.5665 20.0377 28.4391 19.9585ZM27.0674 22.1673C27.1891 22.0662 27.2682 21.9388 27.3531 21.9916C27.3004 22.0765 27.1949 22.2464 27.0674 22.1673ZM15.7208 40.7237C15.9524 40.1612 16.1295 40.9186 15.7208 40.7237C15.381 40.5126 15.5317 41.3125 15.7208 40.7237ZM32.334 14.255C32.3442 14.1437 32.3925 14.3503 32.334 14.255V14.255ZM29.2523 18.9333C29.9453 18.4808 29.3283 19.5691 29.2523 18.9333V18.9333ZM15.5581 41.27C15.542 41.2012 15.5903 41.4077 15.5581 41.27V41.27ZM15.1097 41.9921C15.0936 41.9233 15.1419 42.1298 15.1097 41.9921V41.9921ZM14.9514 42.247C15.382 42.6909 14.405 42.0843 14.9514 42.247V42.247ZM14.7579 43.1274C14.8736 42.8461 15.0641 42.729 15.3029 42.8184C15.4508 42.6748 15.4303 42.8975 15.3029 42.8184C15.171 43.0308 14.9747 42.9677 14.8853 43.2065C15.0024 43.3969 14.7798 43.3764 14.8853 43.2065C14.8428 43.1801 14.8003 43.1537 14.7579 43.1274C14.7051 43.2123 14.6523 43.2973 14.5996 43.3822C14.7167 43.5727 14.4941 43.5521 14.5996 43.3822C14.3506 43.4041 14.2231 43.325 14.2964 43.0174C14.4824 43.1918 14.5616 43.0643 14.7579 43.1274ZM31.4854 15.9058C31.4693 15.8369 31.5176 16.0435 31.4854 15.9058V15.9058ZM16.5296 39.9899C16.5135 39.9211 16.5618 40.1276 16.5296 39.9899V39.9899ZM32.0613 15.2628C32.0452 15.194 32.0935 15.4005 32.0613 15.2628V15.2628ZM14.4413 43.6371C14.4252 43.5682 14.4735 43.7748 14.4413 43.6371V43.6371ZM33.7977 12.7509C33.7816 12.6821 33.8299 12.8886 33.7977 12.7509V12.7509ZM32.7954 14.365C32.9858 14.2479 32.9228 14.4441 32.7954 14.365C32.6519 14.217 32.6049 14.4822 32.7954 14.365ZM32.2987 14.8805C32.3778 14.7531 32.4672 14.5144 32.6635 14.5774C32.5155 14.7209 32.4261 14.9597 32.2987 14.8805ZM30.5269 18.018C30.5108 17.9491 30.5591 18.1557 30.5269 18.018V18.018ZM16.1469 41.4591C15.9462 41.6876 15.7982 41.8311 15.5755 41.8106C15.7177 41.4869 15.9082 41.3697 16.1469 41.4591ZM31.3402 16.9927C31.2816 16.8975 31.3724 17.1304 31.3402 16.9927V16.9927ZM31.1028 17.375C31.0442 17.2798 31.135 17.5127 31.1028 17.375V17.375ZM19.6287 35.8522C19.5965 35.7145 19.6609 35.99 19.6287 35.8522V35.8522ZM31.7578 16.6046C31.7256 16.4669 31.7475 16.7159 31.7578 16.6046V16.6046ZM16.9602 40.4339C17.1082 40.2903 17.0612 40.5555 16.9602 40.4339C16.7903 40.3284 16.7697 40.551 16.9602 40.4339ZM16.4326 41.2834C16.6217 40.6946 16.7724 41.4944 16.4326 41.2834C16.2627 41.1779 16.2158 41.443 16.4326 41.2834ZM15.8318 42.4405C15.99 42.1857 16.2552 42.2326 16.4076 41.7976C16.5292 41.6965 16.2905 41.6071 16.4076 41.7976C16.5087 41.9192 16.4559 42.0041 16.5833 42.0833C16.7152 41.8709 16.8793 41.7962 17.0756 41.8592C16.9862 42.098 16.8163 41.9925 16.7108 42.1624C16.8279 42.3529 16.6316 42.2898 16.7108 42.1624C16.6683 42.136 16.6258 42.1096 16.5833 42.0833C16.5306 42.1682 16.4778 42.2532 16.4251 42.3381C16.5686 42.4861 16.3459 42.4656 16.4251 42.3381C16.2127 42.2062 16.1027 42.6677 15.8318 42.4405C15.5944 42.8228 15.4173 42.0654 15.8318 42.4405ZM33.8152 13.2915C33.8679 13.2065 33.9734 13.0366 34.0584 13.0894C34.0056 13.1743 33.9001 13.3442 33.8152 13.2915ZM33.821 13.4716C33.8049 13.4028 33.8532 13.6093 33.821 13.4716V13.4716ZM31.9952 16.2223C32.0479 16.1374 32.1534 15.9675 32.2384 16.0202C32.1592 16.1477 32.0801 16.2751 31.9952 16.2223ZM31.3943 17.3795C31.3782 17.3106 31.4265 17.5172 31.3943 17.3795V17.3795ZM17.4935 39.7645C17.4774 39.6957 17.5257 39.9022 17.4935 39.7645V39.7645ZM18.0694 39.1216C18.0797 39.0102 18.1016 39.2593 18.0694 39.1216V39.1216ZM17.6693 40.0502C17.6532 39.9814 17.7015 40.1879 17.6693 40.0502V40.0502ZM33.7549 14.4311C33.944 13.8423 34.1635 14.6261 33.7549 14.4311C33.5805 14.6171 33.7504 14.7226 33.6449 14.8926C33.2421 14.8778 33.5689 14.2568 33.7549 14.4311ZM35.7815 11.452C35.7654 11.3831 35.8137 11.5897 35.7815 11.452V11.452ZM18.5308 39.2315C18.6363 39.0616 18.7052 39.0455 18.8165 39.0558C19.0069 38.9387 18.9439 39.1349 18.8165 39.0558C18.7374 39.1832 18.6421 39.2418 18.5308 39.2315C18.3403 39.3487 18.4034 39.1524 18.5308 39.2315ZM17.6867 40.5908C17.8186 40.3784 17.9827 40.3037 18.179 40.3667C18.2156 40.2129 18.3109 40.1544 18.4647 40.191C18.5013 40.0372 18.5966 39.9786 18.7504 40.0153C18.787 39.8615 18.8822 39.8029 18.9672 39.8557C19.184 39.696 19.1371 39.9612 18.9672 39.8557C18.9305 40.0095 18.8353 40.0681 18.7504 40.0153C18.6449 40.1852 18.576 40.2013 18.4647 40.191C18.3855 40.3185 18.2903 40.377 18.179 40.3667C18.0471 40.5791 17.9094 40.6113 17.6867 40.5908C17.524 41.1371 17.3044 40.3534 17.6867 40.5908ZM34.5373 13.7399C34.5212 13.671 34.5695 13.8776 34.5373 13.7399V13.7399ZM34.379 13.9947C34.3893 13.8834 34.4112 14.1324 34.379 13.9947V13.9947ZM18.4472 39.6505C18.6377 39.5333 18.5483 39.7721 18.4472 39.6505C18.2773 39.545 18.2304 39.8101 18.4472 39.6505ZM17.414 41.5986C17.6908 42.0059 16.7622 41.6058 17.414 41.5986V41.5986ZM19.3087 38.8318C19.2502 38.7365 19.3409 38.9695 19.3087 38.8318V38.8318ZM18.9922 39.3415C19.0289 39.1877 19.1138 39.2404 19.1988 39.2932C19.3879 38.7044 19.565 39.4617 19.1988 39.2932C19.1196 39.4206 19.0347 39.3679 18.9922 39.3415C18.8018 39.4586 18.8223 39.236 18.9922 39.3415ZM35.6845 12.7454C35.9979 12.9989 35.2406 13.176 35.6845 12.7454C36.086 12.2885 35.3022 12.5081 35.6845 12.7454ZM35.2889 13.3826C35.2567 13.2449 35.305 13.4514 35.2889 13.3826V13.3826ZM19.5681 38.6985C19.7424 38.5125 19.6955 38.7777 19.5681 38.6985C19.4245 38.5505 19.3776 38.8157 19.5681 38.6985ZM36.3761 11.8212C36.36 11.7524 36.4083 11.959 36.3761 11.8212V11.8212ZM36.1387 12.2035C36.149 12.0922 36.1709 12.3412 36.1387 12.2035V12.2035ZM43.6518 0.389274C43.6357 0.320421 43.684 0.526981 43.6518 0.389274V0.389274ZM20.0178 38.4481C20.2083 38.331 20.1877 38.5536 20.0178 38.4481C19.8904 38.369 19.8274 38.5653 20.0178 38.4481ZM19.4595 39.6316C19.6866 39.3607 19.9034 39.2011 20.211 39.2744C20.5334 38.9448 21.496 38.2477 21.4079 38.9582C21.1209 38.6622 20.9948 39.0548 20.7882 39.1031C20.9318 39.2511 20.7574 39.4371 20.63 39.358C20.5933 39.5118 20.4981 39.5703 20.4131 39.5176C20.334 39.645 20.249 39.5923 20.2066 39.5659C20.0805 39.9584 20.7632 39.6173 20.5155 40.1109C20.3881 40.0318 20.3251 40.228 20.2298 40.2866C19.9955 39.9057 19.9209 39.7416 19.4595 39.6316C19.269 39.7488 19.332 39.5525 19.4595 39.6316ZM23.0159 34.1888C23.2064 34.0717 23.1594 34.3368 23.0159 34.1888C22.8885 34.1097 22.7991 34.3485 23.0159 34.1888ZM19.4286 39.9656C19.4389 39.8543 19.4608 40.1033 19.4286 39.9656V39.9656ZM21.0551 37.9151C21.039 37.8463 21.0873 38.0528 21.0551 37.9151V37.9151ZM21.5473 37.6911C21.5576 37.5798 21.6426 37.6325 21.7114 37.6164C21.9019 37.4993 21.855 37.7644 21.7114 37.6164C21.6748 37.7702 21.5898 37.7175 21.5473 37.6911C21.3569 37.8083 21.3774 37.5856 21.5473 37.6911ZM21.1517 38.3282C21.1195 38.1905 21.1414 38.4396 21.1517 38.3282V38.3282ZM24.604 33.527C24.6143 33.4157 24.6626 33.6223 24.604 33.527V33.527ZM21.8872 37.9021C21.8711 37.8333 21.9194 38.0398 21.8872 37.9021V37.9021ZM22.1728 37.7264C22.1567 37.6575 22.205 37.8641 22.1728 37.7264V37.7264ZM22.7487 37.0834C22.759 36.9721 22.8703 36.9824 22.9552 37.0351C22.9919 36.8813 23.0871 36.8227 23.2146 36.9019C23.3201 36.732 23.3947 36.8961 23.342 36.981C23.4958 37.0177 23.6702 36.8317 23.8401 36.9372C23.9192 36.8097 23.9617 36.8361 24.0466 36.8889C24.2371 36.7717 24.2165 36.9944 24.0466 36.8889C24.0364 37.0002 23.925 36.9899 23.8401 36.9372C23.7668 37.2448 22.9669 37.3955 23.342 36.981C23.2995 36.9546 23.257 36.9283 23.2146 36.9019C23.1354 37.0293 23.0402 37.0879 22.9552 37.0351C22.8761 37.1626 22.8336 37.1362 22.7487 37.0834C22.5596 37.6723 22.34 36.8885 22.7487 37.0834ZM21.9837 38.3152C22.1742 38.1981 22.1112 38.3944 21.9837 38.3152C21.5751 38.1203 21.7947 38.9041 21.9837 38.3152ZM23.5311 36.3922C23.6791 36.2486 23.6585 36.4713 23.5311 36.3922C23.3612 36.2866 23.3406 36.5093 23.5311 36.3922ZM22.8453 37.4965C22.7867 37.4013 22.8775 37.6343 22.8453 37.4965V37.4965ZM23.9809 36.1418C24.1713 36.0246 24.1244 36.2897 23.9809 36.1418C23.8534 36.0626 23.8065 36.3278 23.9809 36.1418ZM23.6643 36.6515C23.7962 36.4391 24.0028 36.3908 24.1566 36.4274C24.3471 36.3103 24.3001 36.5754 24.1566 36.4274C24.0247 36.6398 23.8606 36.7145 23.6643 36.6515C23.5164 36.795 23.5369 36.5723 23.6643 36.6515ZM25.2247 35.5605C25.8341 35.5269 24.6636 35.8006 25.2247 35.5605V35.5605ZM25.818 35.458C25.7858 35.3203 25.8077 35.5694 25.818 35.458V35.458ZM27.5603 33.1263C27.5442 33.0574 27.5924 33.264 27.5603 33.1263V33.1263ZM27.1118 33.8484C27.0957 33.7795 27.144 33.9861 27.1118 33.8484V33.8484ZM24.9753 37.289C25.5847 37.2554 24.4142 37.5291 24.9753 37.289V37.289ZM27.2084 34.2615C27.3989 34.1444 27.3783 34.367 27.2084 34.2615C27.081 34.1824 27.018 34.3787 27.2084 34.2615ZM27.9117 33.6977C27.9484 33.5439 28.0436 33.4853 28.1974 33.522C28.3454 33.3784 28.3248 33.6011 28.1974 33.522C28.1183 33.6494 28.023 33.708 27.9117 33.6977C27.7212 33.8148 27.7418 33.5922 27.9117 33.6977ZM27.5116 34.6263C27.453 34.5311 27.5438 34.764 27.5116 34.6263V34.6263ZM28.3306 33.7813C28.5622 33.2188 28.7393 33.9762 28.3306 33.7813C28.2032 33.7021 28.1827 33.9248 28.3306 33.7813ZM8.33718 29.4878C8.1409 29.4248 8.02511 29.706 7.89323 29.9184C8.08951 29.9814 8.16282 29.6738 8.33718 29.4878ZM7.41535 31.4462C7.39925 31.3773 7.44755 31.5839 7.41535 31.4462V31.4462ZM6.90527 32.8362C6.9844 32.7088 6.78812 32.6458 6.90527 32.8362V32.8362ZM7.16013 32.9945C7.07517 32.9418 6.99022 32.889 6.90527 32.8362C6.58292 33.1658 6.66205 33.0384 6.50961 33.4734C7.00323 33.7211 6.66205 33.0384 7.08099 33.1219C7.10737 33.0795 7.13375 33.037 7.16013 32.9945ZM6.29859 33.8132C6.17116 33.7341 6.10813 33.9304 6.29859 33.8132V33.8132ZM0.570287 43.3221C0.945388 42.9076 0.674429 42.6805 1.04953 42.266C0.577836 42.2674 0.738829 42.9559 0.442857 43.243C0.485335 43.2693 0.527812 43.2957 0.570287 43.3221ZM6.29859 33.8132C6.57264 33.2771 6.79221 34.0609 6.29859 33.8132V33.8132ZM6.18862 34.2746C6.29413 34.1047 6.07147 34.0842 6.18862 34.2746V34.2746ZM6.18862 34.2746C6.30578 34.4651 6.10949 34.4021 6.18862 34.2746V34.2746ZM5.3401 35.9254C5.21267 35.8462 5.14964 36.0425 5.05441 36.1011C5.18184 36.1802 5.21849 36.0264 5.3401 35.9254ZM0.570287 43.3221C0.794311 43.8143 -0.031932 44.0075 0.570287 43.3221V43.3221ZM7.16013 32.9945C7.2026 33.0209 7.24508 33.0473 7.28755 33.0736C7.31393 33.0312 7.23926 32.8671 7.16013 32.9945ZM5.23013 36.3868C4.95918 36.1597 4.88141 36.7588 4.73342 36.9023C4.9619 37.1031 5.03967 36.504 5.23013 36.3868ZM4.70259 37.2363C4.64401 37.1411 4.73479 37.374 4.70259 37.2363V37.2363ZM0.455862 44.075C0.302059 44.0384 0.222928 44.1658 0.170174 44.2508C0.297602 44.3299 0.334254 44.1761 0.455862 44.075ZM4.51349 37.8252C4.34359 37.7197 4.25418 37.9584 4.17505 38.0859C4.30248 38.165 4.39188 37.9262 4.51349 37.8252ZM4.22334 38.2924C4.09591 38.2133 3.99041 38.3832 3.93765 38.4681C4.02261 38.5209 4.12811 38.351 4.22334 38.2924ZM3.82769 38.9296C3.9332 38.7597 3.66806 38.7127 3.82769 38.9296V38.9296ZM3.45841 39.5242C3.54199 39.1053 3.81295 39.3324 3.91264 38.9823C3.87016 38.9559 3.87016 38.9559 3.82769 38.9296C3.62112 38.9779 3.47314 39.1214 3.33098 39.4451C3.37346 39.4715 3.41593 39.4979 3.45841 39.5242ZM1.11084 43.3046C0.914555 43.2416 0.798766 43.5228 0.666881 43.7352C0.863165 43.7982 0.936475 43.4906 1.11084 43.3046ZM0.187635 44.7913C0.589112 44.3343 -0.168274 44.5114 0.187635 44.7913V44.7913ZM5.8118 35.924C5.82207 35.8127 5.87037 36.0192 5.8118 35.924V35.924ZM0.80013 43.9945C0.715178 43.9418 0.636046 44.0692 0.583293 44.1542C0.668245 44.2069 0.747377 44.0795 0.80013 43.9945ZM0.187635 44.7913C0.134881 44.8763 0.0293743 45.0462 0.114326 45.0989C0.193455 44.9715 0.272587 44.8441 0.187635 44.7913ZM7.31084 33.7944C7.26836 33.768 7.22589 33.7416 7.18341 33.7152C7.15703 33.7577 7.23171 33.9218 7.31084 33.7944ZM7.15258 34.0492C7.16285 33.9379 7.21115 34.1445 7.15258 34.0492V34.0492ZM0.114326 45.0989C-0.0703166 45.3963 0.115691 45.5706 -9.75456e-05 45.8519C0.445222 45.893 0.32671 45.2308 0.114326 45.0989ZM6.30405 35.7C6.748 35.2694 5.99061 35.4465 6.30405 35.7V35.7ZM5.50382 37.5573C5.41887 37.5046 5.42914 37.3932 5.50828 37.2658C5.0263 37.3785 5.00574 37.6012 4.77417 38.1636C5.30445 38.2575 5.01157 37.7813 5.50382 37.5573ZM4.03561 39.353C3.90818 39.2738 3.81877 39.5126 4.03561 39.353V39.353ZM1.03817 47.4972C1.15531 47.6876 0.890178 47.6407 1.03817 47.4972V47.4972ZM12.0877 34.3477C12.1669 34.2202 11.9442 34.1997 12.0877 34.3477V34.3477ZM12.4262 34.087C12.3046 34.188 12.2152 34.4268 12.0877 34.3477C11.9353 34.7827 11.7068 34.582 11.5647 34.9057C12.0525 34.9732 11.4122 35.3407 11.8736 35.4507C12.1857 35.2325 11.6482 34.4867 12.2693 34.8135C12.6077 34.5529 12.284 34.4107 12.5111 34.1397C12.5111 34.1397 12.4687 34.1134 12.4262 34.087ZM11.5338 35.2397C11.2629 35.0125 11.1851 35.6117 11.0371 35.7552C11.292 35.9135 11.3434 35.3568 11.5338 35.2397ZM11.0063 36.0892C10.9477 35.994 11.0385 36.2269 11.0063 36.0892V36.0892ZM7.2871 42.0784C7.22853 41.9831 7.3193 42.2161 7.2871 42.0784V42.0784ZM12.3659 35.2267C12.716 35.3263 12.8304 34.5734 13.1 34.3288C12.5858 34.3038 12.5081 34.9029 12.3659 35.2267ZM13.9441 32.9696C13.928 32.9007 13.9763 33.1073 13.9441 32.9696V32.9696ZM13.3374 33.9465C13.3213 33.8777 13.3696 34.0842 13.3374 33.9465V33.9465ZM12.99 34.7903C12.9637 34.8327 12.9109 34.9177 12.8581 35.0026C12.9431 35.0554 13.028 35.1081 13.113 35.1609C13.1658 35.0759 13.2185 34.991 13.2449 34.9485C13.1599 34.8958 13.075 34.843 12.99 34.7903ZM12.3789 36.0587C12.6838 35.1886 12.9195 36.0413 12.3789 36.0587V36.0587ZM12.4272 36.2653C12.2998 36.1861 12.1943 36.3561 12.1415 36.441C12.2689 36.5201 12.332 36.3239 12.4272 36.2653ZM12.1898 36.6476C12.0624 36.5684 11.9832 36.6959 11.9041 36.8233C12.0315 36.9024 12.0946 36.7061 12.1898 36.6476ZM11.9524 37.0299C11.9202 36.8921 12.011 37.1251 11.9524 37.0299V37.0299ZM16.2005 30.6629C16.1155 30.6101 16.0364 30.7375 15.9573 30.865C16.0422 30.9177 16.1477 30.7478 16.2005 30.6629ZM15.9631 31.0451C15.8782 30.9924 15.799 31.1198 15.7463 31.2048C15.8312 31.2575 15.9104 31.1301 15.9631 31.0451ZM15.673 31.5124C15.5455 31.4332 15.4561 31.672 15.3506 31.8419C15.5044 31.8786 15.5938 31.6398 15.673 31.5124ZM15.2245 32.2345C15.2084 32.1656 15.2567 32.3722 15.2245 32.2345V32.2345ZM15.0663 32.4893C14.9125 32.4527 14.8494 32.649 14.7439 32.8189C14.8977 32.8555 14.9871 32.6168 15.0663 32.4893ZM14.7498 32.9991C14.76 32.8877 14.8083 33.0943 14.7498 32.9991V32.9991ZM14.3013 33.7212C14.1739 33.642 14.0845 33.8808 13.979 34.0507C14.1328 34.0873 14.2222 33.8486 14.3013 33.7212ZM13.8529 34.4433C13.8368 34.3744 13.8851 34.581 13.8529 34.4433V34.4433ZM13.6947 34.6981C13.6786 34.6293 13.7269 34.8358 13.6947 34.6981V34.6981ZM13.5364 34.953C13.5467 34.8416 13.5686 35.0907 13.5364 34.953V34.953ZM13.3254 35.2928C13.3093 35.2239 13.3576 35.4305 13.3254 35.2928V35.2928ZM18.148 27.8111C17.6865 27.7011 18.1332 28.214 17.9852 28.3575C18.4467 28.4675 18.1802 27.9488 18.148 27.8111ZM17.6995 28.5332C17.159 28.5507 17.3947 29.4033 17.6995 28.5332V28.5332ZM16.7763 30.0199C16.7866 29.9086 16.8349 30.1151 16.7763 30.0199V30.0199ZM12.3714 37.1134C12.2439 37.0343 12.2073 37.1881 12.112 37.2467C12.2395 37.3258 12.3186 37.1984 12.3714 37.1134ZM17.6995 28.5332C17.89 28.4161 17.8694 28.6387 17.6995 28.5332V28.5332ZM16.218 31.2034C16.2282 31.0921 16.2765 31.2986 16.218 31.2034V31.2034ZM15.0837 33.0299C15.094 32.9186 15.1159 33.1676 15.0837 33.0299V33.0299ZM19.1195 26.531C19.4754 26.8109 18.6755 26.9616 19.1195 26.531V26.531ZM17.6379 29.2012C17.5104 29.1221 17.4738 29.2759 17.3786 29.3344C17.506 29.4136 17.5426 29.2598 17.6379 29.2012ZM16.6136 30.5663C16.6516 30.8841 16.6897 31.202 16.3409 31.574C16.962 31.9009 17.0017 30.9838 17.1542 30.5488C16.974 30.5546 16.8421 30.767 16.6136 30.5663ZM16.0552 31.7498C16.0391 31.6809 16.0874 31.8875 16.0552 31.7498V31.7498ZM15.2595 33.3156C15.8309 32.9641 15.9627 32.7517 16.1518 32.1629C15.6171 32.3605 15.3855 32.923 15.2595 33.3156ZM14.8111 34.0377C15.0878 34.445 14.1592 34.0449 14.8111 34.0377V34.0377ZM19.204 28.2904C18.9067 28.1057 18.98 27.7981 18.6094 27.9211C18.3456 28.3458 18.9506 28.6038 18.5491 29.0608C18.8728 29.2029 19.0033 28.5188 19.204 28.2904ZM18.9183 28.4661C18.9286 28.3548 18.9505 28.6038 18.9183 28.4661V28.4661ZM18.3675 28.5949C18.4467 28.4675 18.2504 28.4044 18.3675 28.5949V28.5949ZM17.2333 30.4214C17.5937 30.4097 17.8033 29.5982 18.0993 29.3112C17.6437 29.3814 17.3433 29.9599 17.2333 30.4214ZM16.3892 31.7806C16.3731 31.7118 16.4214 31.9183 16.3892 31.7806V31.7806ZM14.5075 35.3795C14.3801 35.3003 14.2527 35.2212 14.1253 35.1421C13.9245 35.3705 13.8351 35.6093 13.8834 35.8159C14.1646 35.9317 14.2424 35.3325 14.5075 35.3795ZM13.5669 36.3256C13.955 36.7432 12.978 36.1365 13.5669 36.3256V36.3256ZM13.1185 37.0477C13.3952 37.455 12.4666 37.0549 13.1185 37.0477V37.0477ZM18.3675 28.5949C18.6443 29.0022 17.8181 29.1954 18.3675 28.5949V28.5949ZM13.0085 37.5091C13.3966 37.9267 12.4197 37.32 13.0085 37.5091V37.5091ZM14.956 34.6574C14.8124 34.5094 14.7655 34.7745 14.956 34.6574V34.6574ZM12.9249 37.928C12.8663 37.8328 12.9146 38.0394 12.9249 37.928V37.928ZM18.4699 29.1882C18.2106 29.3214 18.1534 29.6979 17.7783 30.1124C18.0493 30.3395 18.4552 29.591 18.4699 29.1882ZM17.5731 30.6324C17.4618 30.6221 17.3827 30.7495 17.3299 30.8345C17.4149 30.8872 17.494 30.7598 17.5731 30.6324ZM16.8873 31.7368C16.7335 31.7001 16.6441 31.9389 16.565 32.0663C16.6924 32.1454 16.7818 31.9067 16.8873 31.7368ZM16.4916 32.3739C16.3642 32.2948 16.2748 32.5335 16.1957 32.661C16.3231 32.7401 16.4125 32.5013 16.4916 32.3739ZM16.2015 32.8412C16.1165 32.7884 16.011 32.9583 15.9583 33.0433C16.0432 33.096 16.1224 32.9686 16.2015 32.8412ZM15.7267 33.6057C15.737 33.4944 15.7853 33.701 15.7267 33.6057V33.6057ZM14.956 34.6574C15.1303 34.4714 15.0834 34.7365 14.956 34.6574V34.6574ZM14.5075 35.3795C14.6966 34.7906 14.8737 35.548 14.5075 35.3795V35.3795ZM20.9405 25.7784C21.0196 25.651 20.797 25.6304 20.9405 25.7784V25.7784ZM19.204 28.2904C19.2523 28.4969 19.6449 28.623 19.3489 28.91C19.8631 28.9351 19.6069 28.3051 19.2832 28.1629C19.2568 28.2054 19.2304 28.2479 19.204 28.2904ZM16.6629 32.9511C16.8753 33.083 16.9061 32.749 16.8739 32.6113C17.0438 32.7168 17.1449 32.8384 16.9705 33.0244C17.2518 33.1402 17.3559 32.4986 17.5728 32.339C17.2343 32.5997 16.751 32.2407 16.4608 32.7079C16.5882 32.787 16.7157 32.8662 16.6629 32.9511ZM16.2981 33.2543C16.282 33.1854 16.3303 33.392 16.2981 33.2543V33.2543ZM15.5815 34.6926C15.9566 34.2782 15.315 34.174 15.2475 34.6618C15.3749 34.7409 15.4965 34.6399 15.5815 34.6926ZM15.4232 34.9475C15.1156 34.8742 14.8782 35.2565 14.6408 35.6388C15.1974 35.6902 14.9895 35.2668 15.4232 34.9475ZM14.3681 36.6466C14.7387 36.5236 14.4736 36.4767 14.6846 36.1369C14.4722 36.005 14.3887 36.4239 14.1924 36.3609C14.1821 36.4722 14.2407 36.5674 14.3681 36.6466ZM20.9405 25.7784C20.9141 25.8209 20.8877 25.8634 20.8613 25.9059C20.9785 26.0963 21.0796 26.2179 21.0854 26.3981C21.1967 26.4084 21.2656 26.3923 21.3711 26.2224C21.2275 26.0744 21.2217 25.8942 20.9405 25.7784ZM17.4806 31.6344C17.3957 31.5816 17.3004 31.6402 17.4015 31.7618C17.4279 31.7193 17.4542 31.6768 17.4806 31.6344ZM17.1905 32.1016C17.063 32.0225 17 32.2187 16.9048 32.2773C17.0322 32.3564 17.0689 32.2026 17.1905 32.1016ZM16.6629 32.9511C16.4666 32.8881 16.3933 33.1957 16.4255 33.3334C16.6643 33.4228 16.6687 33.1313 16.6629 32.9511ZM16.1881 33.7157C16.0871 33.5941 15.9977 33.8328 16.1881 33.7157V33.7157ZM16.1045 34.1346C16.1309 34.0922 16.1573 34.0497 16.1837 34.0072C15.7853 33.701 15.6811 34.3426 16.1045 34.1346ZM13.7614 37.6235C13.0568 37.7157 13.8799 38.2857 13.7614 37.6235V37.6235ZM22.2021 24.0311C22.3296 24.1102 22.5039 23.9242 22.3604 23.7762C22.3076 23.8612 22.2549 23.9461 22.2021 24.0311ZM19.3489 28.91C19.2054 28.7621 19.1585 29.0272 19.3489 28.91V28.91ZM18.9797 29.5047C18.8522 29.4256 18.6779 29.6116 18.8214 29.7596C18.8741 29.6746 18.9269 29.5897 18.9797 29.5047ZM18.6895 29.972C19.0512 30.432 18.1168 29.8517 18.6895 29.972V29.972ZM18.1356 30.864C17.7533 30.6266 17.9465 31.4528 18.1356 30.864V30.864ZM17.4806 31.6344C17.6711 31.5172 17.6505 31.7399 17.4806 31.6344V31.6344ZM17.4015 31.7618C17.7838 31.9992 16.9575 32.1924 17.4015 31.7618V31.7618ZM14.6846 36.1369C14.7271 36.1632 14.7696 36.1896 14.8121 36.216C14.8384 36.1735 14.8648 36.131 14.8912 36.0886C14.9922 36.2102 14.897 36.2687 14.8121 36.216C14.7065 36.3859 14.9453 36.4753 14.9087 36.6291C15.3012 36.7552 14.9234 36.2263 15.2779 36.0344C15.1505 35.9553 15.0231 35.8762 14.8956 35.797C14.8165 35.9245 14.7638 36.0094 14.6846 36.1369ZM14.3681 36.6466C14.4853 36.837 14.289 36.774 14.3681 36.6466V36.6466ZM21.182 26.8112C20.911 26.5841 20.7044 26.6324 20.5887 26.9136C20.7952 26.8654 21.0559 27.2038 21.182 26.8112ZM18.9797 29.5047C19.0221 29.5311 19.0646 29.5575 19.1071 29.5838C19.1598 29.4989 19.0588 29.3773 18.9797 29.5047ZM18.8214 29.7596C18.7539 30.2474 19.5743 29.874 19.1071 29.5838C19.0119 29.6424 18.9488 29.8387 18.8214 29.7596ZM17.942 31.7443C18.0475 31.5744 17.8249 31.5539 17.942 31.7443V31.7443ZM17.7046 32.1266C17.8101 31.9567 18.1017 31.9612 17.942 31.7443C17.8204 31.8454 17.5714 31.8673 17.7046 32.1266ZM15.5153 35.6521C15.9034 36.0697 14.9265 35.463 15.5153 35.6521V35.6521ZM13.9019 38.5347C14.0704 38.1685 13.313 38.3456 13.9019 38.5347V38.5347ZM21.3711 26.2224C21.5848 26.826 21.5029 26.01 21.7153 26.1419C21.8839 25.7757 21.3594 25.862 21.3711 26.2224ZM20.1269 28.5103C20.0683 28.4151 20.1166 28.6216 20.1269 28.5103V28.5103ZM18.386 31.3137C18.3274 31.2185 18.3757 31.4251 18.386 31.3137V31.3137ZM17.7046 32.1266C17.6783 32.1691 17.6255 32.254 17.5728 32.339C17.7002 32.4181 17.8321 32.2057 17.7046 32.1266ZM14.7196 37.218C14.5921 37.1388 14.513 37.2662 14.4602 37.3512C14.5877 37.4303 14.6243 37.2765 14.7196 37.218ZM13.9063 38.2432C14.2376 37.3306 14.4732 38.1833 13.9063 38.2432V38.2432ZM21.182 26.8112C21.3094 26.8904 21.135 27.0764 21.2361 27.198C21.6273 26.8523 21.5307 26.4392 21.182 26.8112ZM20.6294 28.1749C20.6558 28.1325 20.6822 28.09 20.7085 28.0475C20.5225 27.8731 20.3321 27.9903 20.6294 28.1749ZM20.0536 28.8179C20.0375 28.749 20.0858 28.9556 20.0536 28.8179V28.8179ZM19.7634 29.2851C19.7473 29.2163 19.7956 29.4228 19.7634 29.2851V29.2851ZM19.526 29.6674C19.5099 29.5986 19.5582 29.8051 19.526 29.6674V29.6674ZM18.2027 32.0828C17.8423 32.0944 17.6327 32.9059 17.3103 33.2354C17.7132 33.2502 17.9492 32.3962 18.2027 32.0828ZM14.6418 37.8171C14.5144 37.7379 14.4938 37.9606 14.6418 37.8171V37.8171ZM16.7297 35.8765C16.9201 35.7594 16.8307 35.9981 16.7297 35.8765V35.8765ZM17.0695 36.0876C17.0431 36.13 16.6725 36.253 16.7471 36.4171C16.7369 36.5284 17.3346 36.1345 17.0695 36.0876ZM16.753 36.5973C16.7369 36.5284 16.7852 36.735 16.753 36.5973V36.5973ZM18.9861 33.5698C18.8587 33.4907 18.7957 33.687 18.7004 33.7455C18.8279 33.8247 18.8909 33.6284 18.9861 33.5698ZM22.3843 28.3819C22.2994 28.3291 22.2305 28.3452 22.1778 28.4302C22.2627 28.4829 22.3477 28.5357 22.3843 28.3819ZM20.516 31.1062C20.7842 30.3899 20.9774 31.2161 20.516 31.1062V31.1062ZM22.3843 28.3819C22.5748 28.2647 22.5542 28.4874 22.3843 28.3819V28.3819ZM11.086 47.1448C11.0435 47.1184 11.001 47.092 10.9585 47.0657C10.9058 47.1506 10.853 47.2356 10.8003 47.3205C10.9116 47.3308 11.0068 47.2722 11.086 47.1448ZM11.2442 46.8899C11.1915 46.9749 11.1387 47.0598 11.086 47.1448C11.2559 47.2503 11.6793 47.0424 11.2442 46.8899ZM12.0808 46.5854C11.9958 46.5327 11.9167 46.6601 11.7951 46.7611C11.9489 46.7978 12.028 46.6704 12.0808 46.5854ZM12.7357 45.815C12.9248 45.2262 13.1444 46.0099 12.7357 45.815V45.815ZM13.5928 45.2878C13.5767 45.219 13.625 45.4255 13.5928 45.2878V45.2878ZM14.406 44.2626C14.4852 44.1351 14.2625 44.1146 14.406 44.2626V44.2626ZM14.5335 44.3417C14.491 44.3153 14.4485 44.2889 14.406 44.2626C14.3533 44.3475 14.3005 44.4325 14.2478 44.5174C14.3327 44.5702 14.428 44.5116 14.5335 44.3417ZM30.9401 17.9214C31.0572 18.1118 30.7921 18.0649 30.9401 17.9214V17.9214ZM14.5335 44.3417C14.6815 44.1982 14.6345 44.4633 14.5335 44.3417V44.3417ZM14.9569 44.1338C14.9408 44.0649 14.9891 44.2715 14.9569 44.1338V44.1338ZM14.6667 44.601C14.6506 44.5322 14.6989 44.7387 14.6667 44.601V44.601ZM15.5327 43.4908C14.8969 43.5669 15.6776 44.1105 15.5327 43.4908V43.4908ZM15.2426 43.9581C15.2265 43.8892 15.2748 44.0958 15.2426 43.9581V43.9581ZM15.7701 43.1085C15.691 43.236 15.6118 43.3634 15.5327 43.4908C15.7554 43.5114 15.9722 43.3517 16.1041 43.1394C15.9767 43.0602 15.9239 43.1452 15.7701 43.1085ZM16.1041 43.1394C16.2946 43.0222 16.2315 43.2185 16.1041 43.1394V43.1394ZM16.8557 42.7821C16.7121 42.6341 16.6652 42.8992 16.8557 42.7821V42.7821ZM16.8557 42.7821C17.3157 42.4203 17.0006 43.4018 16.8557 42.7821V42.7821ZM16.5347 43.5833C16.4761 43.4881 16.5244 43.6946 16.5347 43.5833V43.5833ZM18.1978 41.379C18.1553 41.3526 18.044 41.3423 17.9912 41.4273C18.0762 41.4801 18.1611 41.5328 18.1978 41.379ZM17.6703 42.2285C17.5428 42.1494 17.4798 42.3457 17.6703 42.2285V42.2285ZM18.4088 41.0392C18.3561 41.1241 18.2769 41.2516 18.1978 41.379C18.2828 41.4318 18.4527 41.5373 18.5318 41.4098C18.4893 41.3835 18.4468 41.3571 18.4044 41.3307C18.526 41.2296 18.5582 41.3674 18.5318 41.4098C18.6167 41.4626 18.712 41.404 18.7911 41.2766C18.6637 41.1974 18.7164 41.1125 18.7428 41.07C18.7003 41.0436 18.6579 41.0173 18.6154 40.9909C18.589 41.0334 18.5363 41.1183 18.4088 41.0392ZM17.6703 42.2285C17.9018 41.6661 18.0525 42.4659 17.6703 42.2285V42.2285ZM17.846 42.5142C17.8299 42.4454 17.8782 42.6519 17.846 42.5142V42.5142ZM18.9494 41.0217C18.8644 40.969 18.7795 40.9162 18.7428 41.07C18.7853 41.0964 18.8278 41.1228 18.8702 41.1492C18.8966 41.1067 18.923 41.0642 18.9494 41.0217ZM18.4218 41.8713C18.4057 41.8024 18.454 42.009 18.4218 41.8713V41.8713ZM20.0791 39.4868C19.9942 39.434 19.8726 39.535 20 39.6142C20.0264 39.5717 20.0528 39.5292 20.0791 39.4868ZM18.9494 41.0217C18.9918 41.0481 19.0343 41.0745 19.0768 41.1009C19.2087 40.8885 19.134 40.7244 18.9494 41.0217ZM18.9977 41.2283C18.9552 41.2019 18.9127 41.1755 18.8702 41.1492C18.8439 41.1916 18.8175 41.2341 18.7911 41.2766C18.9024 41.2869 18.9449 41.3132 18.9977 41.2283ZM18.391 42.2052C18.2475 42.0573 18.2005 42.3224 18.391 42.2052V42.2052ZM18.0217 42.7999C18.0056 42.7311 18.0539 42.9376 18.0217 42.7999V42.7999ZM20.211 39.2744C20.3223 39.2846 20.4176 39.2261 20.545 39.3052C20.4923 39.3902 20.4395 39.4751 20.4131 39.5176C20.3018 39.5073 20.2168 39.4546 20.2066 39.5659C20.1641 39.5395 20.1216 39.5131 20.0791 39.4868C20.1319 39.4018 20.1846 39.3168 20.211 39.2744ZM19.0768 41.1009C19.0504 41.1433 19.024 41.1858 18.9977 41.2283C19.0401 41.2547 19.2042 41.18 19.0768 41.1009ZM18.391 42.2052C18.6078 42.0456 18.5184 42.2844 18.391 42.2052V42.2052ZM19.6482 40.7494C19.4783 40.6439 19.4577 40.8666 19.6482 40.7494V40.7494ZM19.0415 41.7264C18.9141 41.6472 18.8086 41.8171 18.7558 41.9021C18.8408 41.9548 18.9199 41.8274 19.0415 41.7264ZM20.7882 39.1031C20.6769 39.0928 20.608 39.1089 20.545 39.3052C20.5875 39.3316 20.5875 39.3316 20.63 39.358C20.6827 39.273 20.7355 39.1881 20.7882 39.1031ZM19.6482 40.7494C19.7962 40.6059 19.7492 40.871 19.6482 40.7494V40.7494ZM19.3858 41.6459C19.3008 41.5931 19.2217 41.7205 19.1265 41.7791C19.2539 41.8582 19.333 41.7308 19.3858 41.6459ZM20.8804 39.8077C20.854 39.8502 20.8276 39.8927 20.8012 39.9352C21.1732 40.2839 21.2774 39.6423 20.8804 39.8077ZM20.4011 40.8638C20.385 40.795 20.4333 41.0015 20.4011 40.8638V40.8638ZM20.1637 41.2461C19.9938 41.1406 19.9733 41.3633 20.1637 41.2461V41.2461ZM20.1637 41.2461C20.3542 41.129 20.2912 41.3252 20.1637 41.2461V41.2461ZM20.1329 41.5801C20.1168 41.5112 20.1651 41.7178 20.1329 41.5801V41.5801ZM21.4737 39.7053C21.4151 39.6101 21.5059 39.843 21.4737 39.7053V39.7053ZM21.9234 39.4549C21.5573 39.2864 21.7343 40.0438 21.9234 39.4549V39.4549ZM21.1585 40.6867C21.1424 40.6179 21.1907 40.8244 21.1585 40.6867V40.6867ZM22.9477 38.0899C22.9052 38.0635 22.8627 38.0371 22.8203 38.0107C22.7939 38.0532 22.7675 38.0957 22.7675 38.0957C22.8525 38.1484 22.9374 38.2012 22.9477 38.0899ZM22.4202 38.9394C22.3777 38.913 22.3352 38.8866 22.2927 38.8602C22.2663 38.9027 22.24 38.9452 22.2136 38.9877C22.3249 38.998 22.4099 39.0507 22.4202 38.9394ZM22.13 39.4066C22.0875 39.3802 21.9762 39.37 21.9234 39.4549C22.0084 39.5077 22.0934 39.5604 22.13 39.4066ZM22.4993 38.8119C22.4729 38.8544 22.4465 38.8969 22.4202 38.9394C22.4626 38.9658 22.5051 38.9921 22.5476 39.0185C22.6003 38.9336 22.6531 38.8486 22.4993 38.8119ZM22.13 39.4066C22.3616 38.8441 22.5123 39.644 22.13 39.4066V39.4066ZM26.869 32.3439C26.7577 32.3336 26.7152 32.3072 26.6624 32.3922C26.7635 32.5138 26.8162 32.4288 26.869 32.3439ZM22.5476 39.0185C23.1936 38.8311 22.4962 39.5752 22.5476 39.0185V39.0185ZM21.8573 40.4144C21.8412 40.3456 21.8895 40.5521 21.8573 40.4144V40.4144ZM26.869 32.3439C26.9115 32.3703 26.9539 32.3966 26.9964 32.423C27.0067 32.3117 27.0916 32.3644 27.203 32.3747C27.2294 32.3323 27.2821 32.2473 27.3349 32.1623C27.1386 32.0993 27.0009 32.1315 26.869 32.3439ZM22.1166 40.2812C22.1269 40.1698 22.1488 40.4189 22.1166 40.2812V40.2812ZM23.1673 38.8736C22.9974 38.7681 22.9768 38.9908 23.1673 38.8736V38.8736ZM22.5606 39.8506C22.6397 39.7231 22.4434 39.6601 22.5606 39.8506V39.8506ZM22.4023 40.1054C22.2324 39.9999 22.2119 40.2226 22.4023 40.1054V40.1054ZM27.3349 32.1623C27.5311 32.2254 27.6367 32.0555 27.8754 32.1449C27.9121 31.9911 27.997 32.0438 28.0395 32.0702C28.0922 31.9853 28.145 31.9003 28.1978 31.8153C27.8799 31.8534 27.5723 31.7801 27.3349 32.1623ZM23.4047 38.4913C23.5951 38.3742 23.5057 38.6129 23.4047 38.4913V38.4913ZM23.1673 38.8736C23.3577 38.7565 23.2947 38.9527 23.1673 38.8736V38.8736ZM22.688 39.9297C22.6455 39.9033 22.6031 39.8769 22.5606 39.8506C22.5078 39.9355 22.4551 40.0205 22.4023 40.1054C22.5137 40.1157 22.6089 40.0571 22.688 39.9297ZM23.1056 39.5416C23.0734 39.4039 23.1378 39.6793 23.1056 39.5416V39.5416ZM22.8946 39.8814C22.8096 39.8287 22.6983 39.8184 22.688 39.9297C22.7305 39.9561 22.8155 40.0088 22.8946 39.8814ZM23.8397 38.6438C23.8075 38.5061 23.8558 38.7126 23.8397 38.6438V38.6438ZM22.8946 39.8814C23.0426 39.7379 22.9956 40.003 22.8946 39.8814V39.8814ZM28.1978 31.8153C28.3252 31.8945 28.4043 31.7671 28.5318 31.8462C28.5581 31.8037 28.6109 31.7188 28.6636 31.6338C28.5098 31.5971 28.3296 31.603 28.1978 31.8153ZM25.3446 36.6943C25.3021 36.6679 25.2596 36.6416 25.2171 36.6152C25.1908 36.6577 25.1644 36.7001 25.138 36.7426C25.2493 36.7529 25.3343 36.8056 25.3446 36.6943ZM24.6543 38.0902C24.5269 38.0111 24.4638 38.2074 24.3686 38.2659C24.496 38.3451 24.5327 38.1913 24.6543 38.0902ZM28.8702 31.5855C28.7852 31.5327 28.7428 31.5064 28.6636 31.6338C28.7911 31.7129 28.8174 31.6705 28.8702 31.5855ZM25.5994 36.8526C25.5569 36.8262 25.5145 36.7998 25.472 36.7734C25.4456 36.8159 25.4778 36.9536 25.5994 36.8526ZM24.0959 39.2737C24.0798 39.2049 24.1281 39.4114 24.0959 39.2737V39.2737ZM28.8702 31.5855C28.9127 31.6119 28.9552 31.6383 28.9976 31.6646C29.0343 31.5108 29.1192 31.5636 29.2042 31.6163C29.2569 31.5314 29.3097 31.4464 29.3624 31.3615C29.1662 31.2984 29.0021 31.3731 28.8702 31.5855ZM25.7577 36.5977C25.7049 36.6827 25.6522 36.7676 25.5994 36.8526C25.8587 36.7193 26.2147 36.9992 26.4257 36.6594C26.2558 36.5539 26.102 36.5172 25.9642 36.5494C25.9115 36.6344 25.8426 36.6505 25.7577 36.5977ZM26.7292 35.3176C26.6764 35.4026 26.6237 35.4875 26.5709 35.5725C26.6823 35.5827 26.7775 35.5242 26.9049 35.6033C26.9577 35.5183 27.0104 35.4334 27.0632 35.3484C26.9357 35.2693 26.8141 35.3704 26.7292 35.3176ZM25.3267 37.8604C25.1832 37.7124 25.1363 37.9775 25.3267 37.8604V37.8604ZM29.569 31.3132C29.4841 31.2604 29.3727 31.2501 29.3624 31.3615C29.421 31.4567 29.4738 31.3718 29.569 31.3132ZM25.3267 37.8604C25.5172 37.7432 25.4542 37.9395 25.3267 37.8604V37.8604ZM25.0058 38.6616C24.9472 38.5664 25.038 38.7993 25.0058 38.6616V38.6616ZM29.569 31.3132C29.6964 31.3923 29.7492 31.3074 29.8605 31.3176C29.9133 31.2327 29.9982 31.2854 30.0407 31.3118C30.1462 31.1419 30.3161 31.2474 30.4055 31.0087C30.0876 31.0467 29.78 30.9734 29.569 31.3132ZM29.5382 31.6472C29.4532 31.5944 29.3683 31.5417 29.3316 31.6955C29.4166 31.7482 29.4429 31.7057 29.5382 31.6472ZM27.1951 35.1361C27.1687 35.1785 27.1159 35.2635 27.0632 35.3484C27.217 35.3851 27.3972 35.3793 27.4866 35.1405C27.4016 35.0878 27.3064 35.1463 27.1951 35.1361ZM26.5356 36.198C26.6528 36.3884 26.3876 36.3415 26.5356 36.198V36.198ZM26.1091 37.1691C25.7269 36.9317 25.8776 37.7316 26.1091 37.1691V37.1691ZM29.7023 31.5725C29.6598 31.5461 29.5485 31.5358 29.5382 31.6472C29.5807 31.6735 29.6656 31.7263 29.7023 31.5725ZM26.2732 37.0944C26.2308 37.068 26.1458 37.0153 26.1091 37.1691C26.178 37.153 26.2629 37.2058 26.2732 37.0944ZM25.9831 37.5617C25.967 37.4928 26.0153 37.6994 25.9831 37.5617V37.5617ZM29.8605 31.3176C29.8078 31.4026 29.755 31.4875 29.7023 31.5725C29.8297 31.6516 29.9249 31.5931 30.0362 31.6033C30.089 31.5184 30.1681 31.3909 30.0407 31.3118C30.0143 31.3543 29.9616 31.4392 29.8605 31.3176ZM27.6448 34.8857C27.5921 34.9706 27.5393 35.0556 27.4866 35.1405C27.7253 35.2299 27.8308 35.06 28.0271 35.123C28.0799 35.0381 28.1326 34.9531 28.1854 34.8682C27.9891 34.8052 27.8411 34.9487 27.6448 34.8857ZM26.2732 37.0944C26.4637 36.9773 26.4431 37.1999 26.2732 37.0944V37.0944ZM26.2424 37.4284C26.1413 37.3068 26.0944 37.5719 26.2424 37.4284V37.4284ZM25.5038 38.6178C25.4877 38.5489 25.536 38.7555 25.5038 38.6178V38.6178ZM27.1656 35.9417C26.9649 36.1702 27.3149 36.2699 27.1831 36.4823C27.5331 36.582 27.4996 35.9726 27.1656 35.9417ZM26.2424 37.4284C26.4592 37.2688 26.4123 37.5339 26.2424 37.4284V37.4284ZM30.6121 30.9604C30.5271 30.9076 30.4847 30.8812 30.4055 31.0087C30.4905 31.0614 30.6018 31.0717 30.6121 30.9604ZM30.0362 31.6033C29.9835 31.6883 29.9307 31.7732 29.878 31.8582C29.8574 32.0808 30.3452 32.1483 30.2294 32.4296C30.2719 32.4559 30.3144 32.4823 30.3569 32.5087C30.436 32.3813 30.4946 32.4765 30.4418 32.5615C30.4843 32.5878 30.5268 32.6142 30.5693 32.6406C30.6748 32.4707 30.7114 32.3169 30.6792 32.1792C30.5254 32.1425 30.3613 32.2172 30.1328 32.0165C30.2384 31.8465 30.3336 31.788 30.4977 31.7133C30.3278 31.6078 30.1476 31.6136 30.0362 31.6033ZM26.7346 37.2044C26.6072 37.1253 26.5442 37.3215 26.7346 37.2044V37.2044ZM30.6121 30.9604C30.8026 30.8432 30.782 31.0659 30.6121 30.9604V30.9604ZM28.6338 34.1461C28.581 34.231 28.5283 34.316 28.4755 34.401C28.6718 34.464 28.8198 34.3205 29.0161 34.3835C29.0688 34.2985 29.1216 34.2136 29.1744 34.1286C29.1319 34.1023 29.0894 34.0759 29.0469 34.0495C28.9678 34.1769 28.9253 34.1506 28.8404 34.0978C28.7876 34.1827 28.7612 34.2252 28.6338 34.1461ZM28.3437 34.6133C28.2909 34.6983 28.2381 34.7832 28.1854 34.8682C28.2703 34.9209 28.392 34.8199 28.5194 34.899C28.5721 34.8141 28.6249 34.7291 28.6513 34.6866C28.5502 34.565 28.4286 34.6661 28.3437 34.6133ZM26.7346 37.2044C26.9251 37.0872 26.9046 37.3099 26.7346 37.2044V37.2044ZM31.0252 30.8638C31.179 30.9004 31.3592 30.8946 31.4911 30.6822C31.2948 30.6192 31.1571 30.6514 31.0252 30.8638ZM30.6779 31.7075C30.5929 31.6547 30.5079 31.602 30.4977 31.7133C30.5826 31.766 30.6251 31.7924 30.6779 31.7075ZM28.6513 34.6866C28.8681 34.527 28.7787 34.7658 28.6513 34.6866V34.6866ZM28.6468 34.9782C28.6043 34.9518 28.5619 34.9254 28.5194 34.899C28.4666 34.984 28.4139 35.0689 28.3611 35.1539C28.4036 35.1803 28.4461 35.2066 28.4885 35.233C28.5413 35.1481 28.5941 35.0631 28.6468 34.9782ZM30.6779 31.7075C30.8522 31.5215 30.8053 31.7866 30.6779 31.7075V31.7075ZM29.3809 34.0803C29.3384 34.054 29.296 34.0276 29.2535 34.0012C29.2271 34.0437 29.2007 34.0862 29.1744 34.1286C29.2329 34.2239 29.2857 34.1389 29.3809 34.0803ZM29.0161 34.3835C28.9106 34.5534 29.2343 34.6956 29.3076 34.3879C29.2227 34.3352 29.1274 34.3938 29.0161 34.3835ZM28.6468 34.9782C28.9794 34.5373 29.1301 35.3372 28.6468 34.9782V34.9782ZM28.4885 35.233C28.4622 35.2755 28.4358 35.318 28.4094 35.3604C28.4519 35.3868 28.5896 35.3546 28.4885 35.233ZM28.0884 36.1617C27.961 36.0825 27.8555 36.2524 27.8027 36.3374C27.9302 36.4165 27.9932 36.2203 28.0884 36.1617ZM30.4418 32.5615C30.4418 32.5615 30.3993 32.5351 30.3569 32.5087C30.3305 32.5512 30.3041 32.5937 30.2777 32.6361C30.3202 32.6625 30.3627 32.6889 30.3627 32.6889C30.3891 32.6464 30.4154 32.6039 30.4418 32.5615ZM29.9085 33.2308C30.0256 33.4213 29.7605 33.3743 29.9085 33.2308V33.2308ZM31.1759 31.6636C31.1598 31.5948 31.2081 31.8013 31.1759 31.6636V31.6636ZM30.6792 32.1792C31.0865 31.9024 31.2797 32.7286 30.6792 32.1792V32.1792ZM29.8043 33.8724C29.7618 33.846 29.7194 33.8197 29.6769 33.7933C29.6505 33.8358 29.6241 33.8782 29.6241 33.8782C29.7091 33.931 29.794 33.9837 29.8043 33.8724ZM29.4659 34.1331C29.4131 34.218 29.3604 34.303 29.3076 34.3879C29.5039 34.451 29.668 34.3763 29.7999 34.1639C29.6724 34.0848 29.5933 34.2122 29.4659 34.1331ZM30.2791 33.1078C30.635 33.3877 29.8776 33.5648 30.2791 33.1078V33.1078ZM30.0109 33.8241C29.9259 33.7714 29.8834 33.745 29.8043 33.8724C29.9156 33.8827 30.0006 33.9354 30.0109 33.8241ZM29.2459 35.0559C29.2562 34.9446 29.3045 35.1512 29.2459 35.0559V35.0559ZM31.2725 32.0768C31.1715 31.9551 31.0821 32.1939 31.2725 32.0768V32.0768ZM30.5384 32.9746C30.6819 33.1226 30.4593 33.102 30.5384 32.9746V32.9746ZM30.0109 33.8241C30.1383 33.9032 30.2599 33.8022 30.3449 33.8549C30.3976 33.77 30.4504 33.685 30.5031 33.6001C30.3068 33.537 30.1428 33.6117 30.0109 33.8241ZM29.5625 34.5462C29.5258 34.7 29.7221 34.763 29.8656 34.911C29.9448 34.7836 30.0239 34.6562 30.103 34.5287C29.9067 34.4657 29.7587 34.6092 29.5625 34.5462ZM28.925 35.8572C28.7975 35.778 28.7609 35.9318 28.6393 36.0329C28.7931 36.0695 28.8297 35.9157 28.925 35.8572ZM31.4791 32.0285C31.3941 31.9757 31.3517 31.9493 31.2725 32.0768C31.3839 32.087 31.4688 32.1398 31.4791 32.0285ZM31.1098 32.6231C31.0248 32.5704 30.9824 32.544 30.9032 32.6714C30.9882 32.7242 31.0995 32.7345 31.1098 32.6231ZM30.1866 34.1098C30.0855 33.9882 29.9961 34.227 30.1866 34.1098V34.1098ZM31.4791 32.0285C31.6959 31.8688 31.6065 32.1076 31.4791 32.0285V32.0285ZM31.1098 32.6231C31.2989 32.0343 31.5185 32.818 31.1098 32.6231V32.6231ZM30.7097 33.5518C30.6247 33.499 30.5134 33.4888 30.5031 33.6001C30.5881 33.6528 30.6306 33.6792 30.7097 33.5518ZM30.4723 33.9341C30.4298 33.9077 30.3873 33.8813 30.3449 33.8549C30.2921 33.9399 30.2394 34.0248 30.1866 34.1098C30.2979 34.1201 30.3932 34.0615 30.4723 33.9341ZM30.7097 33.5518C30.9002 33.4346 30.8371 33.6309 30.7097 33.5518V33.5518ZM30.6789 33.8858C30.5939 33.833 30.5089 33.7803 30.4723 33.9341C30.5572 33.9868 30.6261 33.9707 30.6789 33.8858ZM30.8854 33.8375C30.8005 33.7847 30.7155 33.732 30.6789 33.8858C30.7213 33.9122 30.8063 33.9649 30.8854 33.8375ZM31.092 33.7892C31.007 33.7364 30.8957 33.7261 30.8854 33.8375C30.9279 33.8639 31.0128 33.9166 31.092 33.7892ZM30.7755 34.2989C30.7433 34.1612 30.7652 34.4102 30.7755 34.2989V34.2989ZM31.092 33.7892C31.24 33.6457 31.2194 33.8683 31.092 33.7892V33.7892ZM30.9395 34.2242C31.1358 34.2873 31.2999 34.2126 31.4318 34.0002C31.278 33.9635 31.0714 34.0118 30.9395 34.2242Z" fill="white"/>
</svg>
