<svg width="24" height="24" viewBox="0 0 24 24" fill="none" xmlns="http://www.w3.org/2000/svg">
<path d="M5.34722 3.47217C8.97684 -0.157384 14.9022 -0.157395 18.5318 3.47217C22.1614 7.10183 22.1614 13.0281 18.5318 16.6577L11.939 23.2495L5.34722 16.6577C1.71759 13.0281 1.71759 7.10183 5.34722 3.47217ZM16.273 5.73096C13.8656 3.32364 9.97636 3.36069 7.60601 5.73096C5.19864 8.13835 5.19872 11.9905 7.60601 14.398C10.0134 16.8054 13.9026 16.7683 16.273 14.398C18.6803 11.9905 18.6433 8.10131 16.273 5.73096ZM9.42144 7.54639C10.7918 6.17601 13.014 6.17608 14.4214 7.5835C15.7916 8.95389 15.7918 11.1761 14.4214 12.5464C13.0511 13.9166 10.8289 13.9166 9.45855 12.5464C8.08822 11.176 8.0512 8.91678 9.42144 7.54639Z" fill="white"/>
</svg>
